<?xml version="1.0" encoding="utf-8"?>
<!-- Generator: Adobe Illustrator 27.1.1, SVG Export Plug-In . SVG Version: 6.00 Build 0)  -->
<svg version="1.1" id="Ebene_1" xmlns="http://www.w3.org/2000/svg" xmlns:xlink="http://www.w3.org/1999/xlink" x="0px" y="0px"
	 width="1415px" height="1388px" viewBox="0 0 1415 1388" enable-background="new 0 0 1415 1388" xml:space="preserve">
<g id="Vector">
	<path shape-rendering="crispEdges" fill="none" stroke="#000000" d="M1367.9,729.6c0,345.4-295.5,625.5-660,625.5
		s-660-280.1-660-625.5s295.5-625.5,660-625.5S1367.9,384.1,1367.9,729.6z"/>
</g>
<g id="Vector_2">
	<path shape-rendering="crispEdges" fill="none" stroke="#000000" d="M1235.9,729.6c0,275.3-236.4,498.5-528,498.5
		s-528-223.2-528-498.5s236.4-498.5,528-498.5S1235.9,454.3,1235.9,729.6z"/>
</g>
<g id="Vector_3">
	<path shape-rendering="crispEdges" fill="none" stroke="#000000" d="M584.4,101.1c24.3-30.2,82.3-92.4,119.5-100
		s100.2,63.5,127,100"/>
</g>
<g id="Vector_4">
	<path shape-rendering="crispEdges" fill="none" stroke="#000000" d="M48.4,722.6c2.5-29.5-56-50-47,88c4.6,70,63.5,106,63.5,59"/>
</g>
<g id="Vector_5">
	<path shape-rendering="crispEdges" fill="none" stroke="#000000" d="M1367.6,721.4c-2.4-29.8,54.8-50.6,46,89
		c-4.5,70.8-62.1,107.2-62.1,59.7"/>
</g>
<g id="Vector_6">
	<path shape-rendering="crispEdges" fill="none" stroke="#000000" d="M1324.4,507.6c-26.3-33.2-95.3-84.9-132-11
		c-30.5,61.5-37.5,116-43,181c-3.4,40.4-14.5,97-42.5,119.5"/>
</g>
<g id="Vector_7">
	<path shape-rendering="crispEdges" fill="none" stroke="#000000" d="M89.4,508.9c26.5-32.9,96-84.1,132.9-10.9
		c30.7,60.9,37.8,114.9,43.3,179.3c3.4,40,14.6,96.1,42.8,118.4"/>
</g>
<g id="Vector_8">
	<path shape-rendering="crispEdges" fill="none" stroke="#000000" d="M308.9,649.1c77,15.5,264.4,78.9,398,208.5
		c51-55.2,202.3-174.1,399.5-208.5"/>
</g>
<g id="Vector_9">
	<path fill="none" stroke="#000000" d="M707.9,103.6v1252"/>
</g>
<g id="Vector_10">
	<path d="M943.4,535.6c2.2,0,4-1.8,4-4s-1.8-4-4-4s-4,1.8-4,4S941.2,535.6,943.4,535.6z"/>
</g>
<g id="Vector_11">
	<path d="M894.4,603.6c2.2,0,4-1.8,4-4s-1.8-4-4-4s-4,1.8-4,4S892.2,603.6,894.4,603.6z"/>
</g>
<g id="Vector_12">
	<path d="M836.4,669.6c2.2,0,4-1.8,4-4s-1.8-4-4-4s-4,1.8-4,4S834.2,669.6,836.4,669.6z"/>
</g>
<g id="Vector_13">
	<path d="M771.4,732.6c2.2,0,4-1.8,4-4s-1.8-4-4-4s-4,1.8-4,4S769.2,732.6,771.4,732.6z"/>
</g>
<g id="Vector_14">
	<path d="M836.4,795.6c2.2,0,4-1.8,4-4s-1.8-4-4-4s-4,1.8-4,4S834.2,795.6,836.4,795.6z"/>
</g>
<g id="Vector_15">
	<path d="M902.4,732.6c2.2,0,4-1.8,4-4s-1.8-4-4-4s-4,1.8-4,4S900.2,732.6,902.4,732.6z"/>
</g>
<g id="Vector_16">
	<path d="M965.4,797.6c2.2,0,4-1.8,4-4s-1.8-4-4-4s-4,1.8-4,4S963.2,797.6,965.4,797.6z"/>
</g>
<g id="Vector_17">
	<path d="M1034.4,732.6c2.2,0,4-1.8,4-4s-1.8-4-4-4s-4,1.8-4,4S1032.2,732.6,1034.4,732.6z"/>
</g>
<g id="Vector_18">
	<path d="M1095.4,804.6c2.2,0,4-1.8,4-4s-1.8-4-4-4s-4,1.8-4,4S1093.2,804.6,1095.4,804.6z"/>
</g>
<g id="Vector_19">
	<path d="M1166.4,732.6c2.2,0,4-1.8,4-4s-1.8-4-4-4s-4,1.8-4,4S1164.2,732.6,1166.4,732.6z"/>
</g>
<g id="Vector_20">
	<path d="M1228.4,649.6c2.2,0,4-1.8,4-4s-1.8-4-4-4s-4,1.8-4,4S1226.2,649.6,1228.4,649.6z"/>
</g>
<g id="Vector_21">
	<path d="M1358.4,627.6c2.2,0,4-1.8,4-4s-1.8-4-4-4s-4,1.8-4,4S1356.2,627.6,1358.4,627.6z"/>
</g>
<g id="Vector_22">
	<path d="M1228.4,814.6c2.2,0,4-1.8,4-4s-1.8-4-4-4s-4,1.8-4,4S1226.2,814.6,1228.4,814.6z"/>
</g>
<g id="Vector_23">
	<path d="M1174.4,971.6c2.2,0,4-1.8,4-4s-1.8-4-4-4s-4,1.8-4,4S1172.2,971.6,1174.4,971.6z"/>
</g>
<g id="Vector_24">
	<path d="M1071.4,1100.6c2.2,0,4-1.8,4-4s-1.8-4-4-4s-4,1.8-4,4C1067.4,1098.8,1069.2,1100.6,1071.4,1100.6z"/>
</g>
<g id="Vector_25">
	<path d="M930.4,1189.6c2.2,0,4-1.8,4-4s-1.8-4-4-4s-4,1.8-4,4C926.4,1187.8,928.2,1189.6,930.4,1189.6z"/>
</g>
<g id="Vector_26">
	<path d="M784.4,1230.6c2.2,0,4-1.8,4-4s-1.8-4-4-4s-4,1.8-4,4C780.4,1228.8,782.2,1230.6,784.4,1230.6z"/>
</g>
<g id="Vector_27">
	<path d="M1289.4,826.6c2.2,0,4-1.8,4-4s-1.8-4-4-4s-4,1.8-4,4S1287.2,826.6,1289.4,826.6z"/>
</g>
<g id="Vector_28">
	<path d="M1297.4,732.6c2.2,0,4-1.8,4-4s-1.8-4-4-4s-4,1.8-4,4S1295.2,732.6,1297.4,732.6z"/>
</g>
<g id="Vector_29">
	<path d="M1357.4,837.6c2.2,0,4-1.8,4-4s-1.8-4-4-4s-4,1.8-4,4S1355.2,837.6,1357.4,837.6z"/>
</g>
<g id="Vector_30">
	<path d="M1328.4,939.6c2.2,0,4-1.8,4-4s-1.8-4-4-4s-4,1.8-4,4S1326.2,939.6,1328.4,939.6z"/>
</g>
<g id="Vector_31">
	<path d="M1285.4,1036.6c2.2,0,4-1.8,4-4s-1.8-4-4-4s-4,1.8-4,4C1281.4,1034.8,1283.2,1036.6,1285.4,1036.6z"/>
</g>
<g id="Vector_32">
	<path d="M1157.4,1192.6c2.2,0,4-1.8,4-4s-1.8-4-4-4s-4,1.8-4,4C1153.4,1190.8,1155.2,1192.6,1157.4,1192.6z"/>
</g>
<g id="Vector_33">
	<path d="M989.4,1302.6c2.2,0,4-1.8,4-4s-1.8-4-4-4s-4,1.8-4,4C985.4,1300.8,987.2,1302.6,989.4,1302.6z"/>
</g>
<g id="Vector_34">
	<path d="M801.4,1355.6c2.2,0,4-1.8,4-4s-1.8-4-4-4s-4,1.8-4,4C797.4,1353.8,799.2,1355.6,801.4,1355.6z"/>
</g>
<g id="Vector_35">
	<path d="M878.4,1276.6c2.2,0,4-1.8,4-4s-1.8-4-4-4s-4,1.8-4,4C874.4,1274.8,876.2,1276.6,878.4,1276.6z"/>
</g>
<g id="Vector_36">
	<path d="M1043.4,1201.6c2.2,0,4-1.8,4-4s-1.8-4-4-4s-4,1.8-4,4C1039.4,1199.8,1041.2,1201.6,1043.4,1201.6z"/>
</g>
<g id="Vector_37">
	<path d="M1178.4,1078.6c2.2,0,4-1.8,4-4s-1.8-4-4-4s-4,1.8-4,4C1174.4,1076.8,1176.2,1078.6,1178.4,1078.6z"/>
</g>
<g id="Vector_38">
	<path d="M1266.4,916.6c2.2,0,4-1.8,4-4s-1.8-4-4-4s-4,1.8-4,4S1264.2,916.6,1266.4,916.6z"/>
</g>
<g id="Vector_39">
	<path d="M769.4,607.6c2.2,0,4-1.8,4-4s-1.8-4-4-4s-4,1.8-4,4S767.2,607.6,769.4,607.6z"/>
</g>
<g id="Vector_40">
	<path d="M824.4,542.6c2.2,0,4-1.8,4-4s-1.8-4-4-4s-4,1.8-4,4S822.2,542.6,824.4,542.6z"/>
</g>
<g id="Vector_41">
	<path d="M1019.4,596.6c2.2,0,4-1.8,4-4s-1.8-4-4-4s-4,1.8-4,4S1017.2,596.6,1019.4,596.6z"/>
</g>
<g id="Vector_42">
	<path d="M965.4,666.6c2.2,0,4-1.8,4-4s-1.8-4-4-4s-4,1.8-4,4S963.2,666.6,965.4,666.6z"/>
</g>
<g id="Vector_43">
	<path d="M1060.4,520.6c2.2,0,4-1.8,4-4s-1.8-4-4-4s-4,1.8-4,4S1058.2,520.6,1060.4,520.6z"/>
</g>
<g id="Vector_44">
	<path d="M1078.4,442.6c2.2,0,4-1.8,4-4s-1.8-4-4-4s-4,1.8-4,4C1074.4,440.8,1076.2,442.6,1078.4,442.6z"/>
</g>
<g id="Vector_45">
	<path d="M988.4,392.6c2.2,0,4-1.8,4-4s-1.8-4-4-4s-4,1.8-4,4C984.4,390.8,986.2,392.6,988.4,392.6z"/>
</g>
<g id="Vector_46">
	<path d="M1066.4,365.6c2.2,0,4-1.8,4-4s-1.8-4-4-4s-4,1.8-4,4C1062.4,363.8,1064.2,365.6,1066.4,365.6z"/>
</g>
<g id="Vector_47">
	<path d="M1114.4,316.6c2.2,0,4-1.8,4-4s-1.8-4-4-4s-4,1.8-4,4C1110.4,314.8,1112.2,316.6,1114.4,316.6z"/>
</g>
<g id="Vector_48">
	<path d="M1178.4,385.6c2.2,0,4-1.8,4-4s-1.8-4-4-4s-4,1.8-4,4C1174.4,383.8,1176.2,385.6,1178.4,385.6z"/>
</g>
<g id="Vector_49">
	<path d="M1285.4,428.6c2.2,0,4-1.8,4-4s-1.8-4-4-4s-4,1.8-4,4C1281.4,426.8,1283.2,428.6,1285.4,428.6z"/>
</g>
<g id="Vector_50">
	<path d="M1170.4,492.6c2.2,0,4-1.8,4-4s-1.8-4-4-4s-4,1.8-4,4C1166.4,490.8,1168.2,492.6,1170.4,492.6z"/>
</g>
<g id="Vector_51">
	<path d="M1266.4,546.6c2.2,0,4-1.8,4-4s-1.8-4-4-4s-4,1.8-4,4S1264.2,546.6,1266.4,546.6z"/>
</g>
<g id="Vector_52">
	<path d="M1095.4,660.6c2.2,0,4-1.8,4-4s-1.8-4-4-4s-4,1.8-4,4S1093.2,660.6,1095.4,660.6z"/>
</g>
<g id="Vector_53">
	<path d="M1143.4,581.6c2.2,0,4-1.8,4-4s-1.8-4-4-4s-4,1.8-4,4S1141.2,581.6,1143.4,581.6z"/>
</g>
<g id="Vector_54">
	<path d="M1285.4,428.6c2.2,0,4-1.8,4-4s-1.8-4-4-4s-4,1.8-4,4C1281.4,426.8,1283.2,428.6,1285.4,428.6z"/>
</g>
<g id="Vector_55">
	<path d="M1043.4,260.6c2.2,0,4-1.8,4-4c0-2.2-1.8-4-4-4s-4,1.8-4,4C1039.4,258.8,1041.2,260.6,1043.4,260.6z"/>
</g>
<g id="Vector_56">
	<path d="M988.4,163.6c2.2,0,4-1.8,4-4s-1.8-4-4-4s-4,1.8-4,4S986.2,163.6,988.4,163.6z"/>
</g>
<g id="Vector_57">
	<path d="M963.4,217.6c2.2,0,4-1.8,4-4s-1.8-4-4-4s-4,1.8-4,4S961.2,217.6,963.4,217.6z"/>
</g>
<g id="Vector_58">
	<path d="M923.4,275.6c2.2,0,4-1.8,4-4s-1.8-4-4-4s-4,1.8-4,4C919.4,273.8,921.2,275.6,923.4,275.6z"/>
</g>
<g id="Vector_59">
	<path d="M872.4,285.6c2.2,0,4-1.8,4-4s-1.8-4-4-4s-4,1.8-4,4C868.4,283.8,870.2,285.6,872.4,285.6z"/>
</g>
<g id="Vector_60">
	<path d="M762.4,293.6c2.2,0,4-1.8,4-4s-1.8-4-4-4s-4,1.8-4,4C758.4,291.8,760.2,293.6,762.4,293.6z"/>
</g>
<g id="Vector_61">
	<path d="M707.4,293.6c2.2,0,4-1.8,4-4s-1.8-4-4-4s-4,1.8-4,4C703.4,291.8,705.2,293.6,707.4,293.6z"/>
</g>
<g id="Vector_62">
	<path d="M428.4,164.6c2.2,0,4-1.8,4-4s-1.8-4-4-4s-4,1.8-4,4S426.2,164.6,428.4,164.6z"/>
</g>
<g id="Vector_63">
	<path d="M446.4,217.6c2.2,0,4-1.8,4-4s-1.8-4-4-4s-4,1.8-4,4S444.2,217.6,446.4,217.6z"/>
</g>
<g id="Vector_64">
	<path d="M368.4,261.6c2.2,0,4-1.8,4-4c0-2.2-1.8-4-4-4s-4,1.8-4,4C364.4,259.8,366.2,261.6,368.4,261.6z"/>
</g>
<g id="Vector_65">
	<path d="M295.4,318.6c2.2,0,4-1.8,4-4s-1.8-4-4-4s-4,1.8-4,4C291.4,316.8,293.2,318.6,295.4,318.6z"/>
</g>
<g id="Vector_66">
	<path d="M233.4,385.6c2.2,0,4-1.8,4-4s-1.8-4-4-4s-4,1.8-4,4C229.4,383.8,231.2,385.6,233.4,385.6z"/>
</g>
<g id="Vector_67">
	<path d="M129.4,427.6c2.2,0,4-1.8,4-4s-1.8-4-4-4s-4,1.8-4,4C125.4,425.8,127.2,427.6,129.4,427.6z"/>
</g>
<g id="Vector_68">
	<path d="M148.4,545.2c0.4-2.2-1.1-4.2-3.3-4.6c-2.2-0.4-4.2,1.1-4.6,3.3c-0.4,2.2,1.1,4.2,3.3,4.6C146,548.9,148,547.4,148.4,545.2
		z"/>
</g>
<g id="Vector_69">
	<path d="M243.4,494.6c2.2,0,4-1.8,4-4s-1.8-4-4-4s-4,1.8-4,4C239.4,492.8,241.2,494.6,243.4,494.6z"/>
</g>
<g id="Vector_70">
	<path d="M267.4,581.6c2.2,0,4-1.8,4-4s-1.8-4-4-4s-4,1.8-4,4S265.2,581.6,267.4,581.6z"/>
</g>
<g id="Vector_71">
	<path d="M314.4,659.6c2.2,0,4-1.8,4-4s-1.8-4-4-4s-4,1.8-4,4S312.2,659.6,314.4,659.6z"/>
</g>
<g id="Vector_72">
	<path d="M376.4,732.6c2.2,0,4-1.8,4-4s-1.8-4-4-4s-4,1.8-4,4S374.2,732.6,376.4,732.6z"/>
</g>
<g id="Vector_73">
	<path d="M445.4,797.6c2.2,0,4-1.8,4-4s-1.8-4-4-4s-4,1.8-4,4S443.2,797.6,445.4,797.6z"/>
</g>
<g id="Vector_74">
	<path d="M390.4,868.6c2.2,0,4-1.8,4-4s-1.8-4-4-4s-4,1.8-4,4S388.2,868.6,390.4,868.6z"/>
</g>
<g id="Vector_75">
	<path d="M515.4,860.6c2.2,0,4-1.8,4-4s-1.8-4-4-4s-4,1.8-4,4S513.2,860.6,515.4,860.6z"/>
</g>
<g id="Vector_76">
	<path d="M467.4,928.6c2.2,0,4-1.8,4-4s-1.8-4-4-4s-4,1.8-4,4S465.2,928.6,467.4,928.6z"/>
</g>
<g id="Vector_77">
	<path d="M433.4,999.6c2.2,0,4-1.8,4-4s-1.8-4-4-4s-4,1.8-4,4S431.2,999.6,433.4,999.6z"/>
</g>
<g id="Vector_78">
	<path d="M585.4,922.6c2.2,0,4-1.8,4-4s-1.8-4-4-4s-4,1.8-4,4S583.2,922.6,585.4,922.6z"/>
</g>
<g id="Vector_79">
	<path d="M541.4,987.6c2.2,0,4-1.8,4-4s-1.8-4-4-4s-4,1.8-4,4S539.2,987.6,541.4,987.6z"/>
</g>
<g id="Vector_80">
	<path d="M512.4,1054.6c2.2,0,4-1.8,4-4s-1.8-4-4-4s-4,1.8-4,4C508.4,1052.8,510.2,1054.6,512.4,1054.6z"/>
</g>
<g id="Vector_81">
	<path d="M608.4,1046.6c2.2,0,4-1.8,4-4s-1.8-4-4-4s-4,1.8-4,4C604.4,1044.8,606.2,1046.6,608.4,1046.6z"/>
</g>
<g id="Vector_82">
	<path d="M650.4,982.6c2.2,0,4-1.8,4-4s-1.8-4-4-4s-4,1.8-4,4S648.2,982.6,650.4,982.6z"/>
</g>
<g id="Vector_83">
	<path d="M245.4,732.6c2.2,0,4-1.8,4-4s-1.8-4-4-4s-4,1.8-4,4S243.2,732.6,245.4,732.6z"/>
</g>
<g id="Vector_84">
	<path d="M315.4,803.6c2.2,0,4-1.8,4-4s-1.8-4-4-4s-4,1.8-4,4S313.2,803.6,315.4,803.6z"/>
</g>
<g id="Vector_85">
	<path d="M266.4,881.6c2.2,0,4-1.8,4-4s-1.8-4-4-4s-4,1.8-4,4S264.2,881.6,266.4,881.6z"/>
</g>
<g id="Vector_86">
	<path d="M350.4,942.6c2.2,0,4-1.8,4-4s-1.8-4-4-4s-4,1.8-4,4S348.2,942.6,350.4,942.6z"/>
</g>
<g id="Vector_87">
	<path d="M332.4,1021.6c2.2,0,4-1.8,4-4s-1.8-4-4-4s-4,1.8-4,4S330.2,1021.6,332.4,1021.6z"/>
</g>
<g id="Vector_88">
	<path d="M423.4,1071.6c2.2,0,4-1.8,4-4s-1.8-4-4-4s-4,1.8-4,4C419.4,1069.8,421.2,1071.6,423.4,1071.6z"/>
</g>
<g id="Vector_89">
	<path d="M436.4,1136.6c2.2,0,4-1.8,4-4s-1.8-4-4-4s-4,1.8-4,4C432.4,1134.8,434.2,1136.6,436.4,1136.6z"/>
</g>
<g id="Vector_90">
	<path d="M472.4,1128.6c2.2,0,4-1.8,4-4s-1.8-4-4-4s-4,1.8-4,4C468.4,1126.8,470.2,1128.6,472.4,1128.6z"/>
</g>
<g id="Vector_91">
	<path d="M547.4,1115.6c2.2,0,4-1.8,4-4s-1.8-4-4-4s-4,1.8-4,4C543.4,1113.8,545.2,1115.6,547.4,1115.6z"/>
</g>
<g id="Vector_92">
	<path d="M536.4,1180.6c2.2,0,4-1.8,4-4s-1.8-4-4-4s-4,1.8-4,4C532.4,1178.8,534.2,1180.6,536.4,1180.6z"/>
</g>
<g id="Vector_93">
	<path d="M649.4,1170.6c2.2,0,4-1.8,4-4s-1.8-4-4-4s-4,1.8-4,4C645.4,1168.8,647.2,1170.6,649.4,1170.6z"/>
</g>
<g id="Vector_94">
	<path d="M625.4,1109.6c2.2,0,4-1.8,4-4s-1.8-4-4-4s-4,1.8-4,4C621.4,1107.8,623.2,1109.6,625.4,1109.6z"/>
</g>
<g id="Vector_95">
	<path d="M666.4,1107.6c2.2,0,4-1.8,4-4s-1.8-4-4-4s-4,1.8-4,4C662.4,1105.8,664.2,1107.6,666.4,1107.6z"/>
</g>
<g id="Vector_96">
	<path d="M350.4,521.6c2.2,0,4-1.8,4-4s-1.8-4-4-4s-4,1.8-4,4S348.2,521.6,350.4,521.6z"/>
</g>
<g id="Vector_97">
	<path d="M343.4,367.6c2.2,0,4-1.8,4-4s-1.8-4-4-4s-4,1.8-4,4C339.4,365.8,341.2,367.6,343.4,367.6z"/>
</g>
<g id="Vector_98">
	<path d="M490.4,275.6c2.2,0,4-1.8,4-4s-1.8-4-4-4s-4,1.8-4,4C486.4,273.8,488.2,275.6,490.4,275.6z"/>
</g>
<g id="Vector_99">
	<path d="M627.4,236.6c2.2,0,4-1.8,4-4s-1.8-4-4-4s-4,1.8-4,4S625.2,236.6,627.4,236.6z"/>
</g>
<g id="Vector_100">
	<path d="M650.4,293.6c2.2,0,4-1.8,4-4s-1.8-4-4-4s-4,1.8-4,4C646.4,291.8,648.2,293.6,650.4,293.6z"/>
</g>
<g id="Vector_101">
	<path d="M665.4,357.6c2.2,0,4-1.8,4-4s-1.8-4-4-4s-4,1.8-4,4C661.4,355.8,663.2,357.6,665.4,357.6z"/>
</g>
<g id="Vector_102">
	<path d="M624.4,353.6c2.2,0,4-1.8,4-4s-1.8-4-4-4s-4,1.8-4,4C620.4,351.8,622.2,353.6,624.4,353.6z"/>
</g>
<g id="Vector_103">
	<path d="M608.4,418.6c2.2,0,4-1.8,4-4s-1.8-4-4-4s-4,1.8-4,4C604.4,416.8,606.2,418.6,608.4,418.6z"/>
</g>
<g id="Vector_104">
	<path d="M651.4,482.6c2.2,0,4-1.8,4-4s-1.8-4-4-4s-4,1.8-4,4C647.4,480.8,649.2,482.6,651.4,482.6z"/>
</g>
<g id="Vector_105">
	<path d="M641.4,607.6c2.2,0,4-1.8,4-4s-1.8-4-4-4s-4,1.8-4,4S639.2,607.6,641.4,607.6z"/>
</g>
<g id="Vector_106">
	<path d="M542.4,285.6c2.2,0,4-1.8,4-4s-1.8-4-4-4s-4,1.8-4,4C538.4,283.8,540.2,285.6,542.4,285.6z"/>
</g>
<g id="Vector_107">
	<path d="M546.4,349.6c2.2,0,4-1.8,4-4s-1.8-4-4-4s-4,1.8-4,4C542.4,347.8,544.2,349.6,546.4,349.6z"/>
</g>
<g id="Vector_108">
	<path d="M471.4,335.6c2.2,0,4-1.8,4-4s-1.8-4-4-4s-4,1.8-4,4C467.4,333.8,469.2,335.6,471.4,335.6z"/>
</g>
<g id="Vector_109">
	<path d="M436.4,327.6c2.2,0,4-1.8,4-4s-1.8-4-4-4s-4,1.8-4,4C432.4,325.8,434.2,327.6,436.4,327.6z"/>
</g>
<g id="Vector_110">
	<path d="M423.4,393.6c2.2,0,4-1.8,4-4s-1.8-4-4-4s-4,1.8-4,4C419.4,391.8,421.2,393.6,423.4,393.6z"/>
</g>
<g id="Vector_111">
	<path d="M434.4,464.6c2.2,0,4-1.8,4-4s-1.8-4-4-4s-4,1.8-4,4C430.4,462.8,432.2,464.6,434.4,464.6z"/>
</g>
<g id="Vector_112">
	<path d="M467.4,535.6c2.2,0,4-1.8,4-4s-1.8-4-4-4s-4,1.8-4,4S465.2,535.6,467.4,535.6z"/>
</g>
<g id="Vector_113">
	<path d="M515.4,603.6c2.2,0,4-1.8,4-4s-1.8-4-4-4s-4,1.8-4,4S513.2,603.6,515.4,603.6z"/>
</g>
<g id="Vector_114">
	<path d="M390.4,595.6c2.2,0,4-1.8,4-4s-1.8-4-4-4s-4,1.8-4,4S388.2,595.6,390.4,595.6z"/>
</g>
<g id="Vector_115">
	<path d="M445.4,666.6c2.2,0,4-1.8,4-4s-1.8-4-4-4s-4,1.8-4,4S443.2,666.6,445.4,666.6z"/>
</g>
<g id="Vector_116">
	<path d="M507.4,733.6c2.2,0,4-1.8,4-4s-1.8-4-4-4s-4,1.8-4,4S505.2,733.6,507.4,733.6z"/>
</g>
<g id="Vector_117">
	<path d="M574.4,795.6c2.2,0,4-1.8,4-4s-1.8-4-4-4s-4,1.8-4,4S572.2,795.6,574.4,795.6z"/>
</g>
<g id="Vector_118">
	<path d="M642.4,857.6c2.2,0,4-1.8,4-4s-1.8-4-4-4s-4,1.8-4,4S640.2,857.6,642.4,857.6z"/>
</g>
<g id="Vector_119">
	<path d="M332.4,443.6c2.2,0,4-1.8,4-4s-1.8-4-4-4s-4,1.8-4,4C328.4,441.8,330.2,443.6,332.4,443.6z"/>
</g>
<g id="Vector_120">
	<path d="M514.4,408.6c2.2,0,4-1.8,4-4s-1.8-4-4-4s-4,1.8-4,4C510.4,406.8,512.2,408.6,514.4,408.6z"/>
</g>
<g id="Vector_121">
	<path d="M542.4,477.6c2.2,0,4-1.8,4-4s-1.8-4-4-4s-4,1.8-4,4C538.4,475.8,540.2,477.6,542.4,477.6z"/>
</g>
<g id="Vector_122">
	<path d="M586.4,542.6c2.2,0,4-1.8,4-4s-1.8-4-4-4s-4,1.8-4,4S584.2,542.6,586.4,542.6z"/>
</g>
<g id="Vector_123">
	<path d="M574.4,668.6c2.2,0,4-1.8,4-4s-1.8-4-4-4s-4,1.8-4,4S572.2,668.6,574.4,668.6z"/>
</g>
<g id="Vector_124">
	<path d="M640.4,732.6c2.2,0,4-1.8,4-4s-1.8-4-4-4s-4,1.8-4,4S638.2,732.6,640.4,732.6z"/>
</g>
<g id="Vector_125">
	<path d="M113.4,731.6c2.2,0,4-1.8,4-4s-1.8-4-4-4s-4,1.8-4,4S111.2,731.6,113.4,731.6z"/>
</g>
<g id="Vector_126">
	<path d="M185.4,649.6c2.2,0,4-1.8,4-4s-1.8-4-4-4s-4,1.8-4,4S183.2,649.6,185.4,649.6z"/>
</g>
<g id="Vector_127">
	<path d="M56.4,837.6c2.2,0,4-1.8,4-4s-1.8-4-4-4s-4,1.8-4,4S54.2,837.6,56.4,837.6z"/>
</g>
<g id="Vector_128">
	<path d="M122.4,826.6c2.2,0,4-1.8,4-4s-1.8-4-4-4s-4,1.8-4,4S120.2,826.6,122.4,826.6z"/>
</g>
<g id="Vector_129">
	<path d="M185.4,814.6c2.2,0,4-1.8,4-4s-1.8-4-4-4s-4,1.8-4,4S183.2,814.6,185.4,814.6z"/>
</g>
<g id="Vector_130">
	<path d="M148.4,914.2c0.4-2.2-1.1-4.2-3.3-4.6s-4.2,1.1-4.6,3.3c-0.4,2.2,1.1,4.2,3.3,4.6C146,917.9,148,916.4,148.4,914.2z"/>
</g>
<g id="Vector_131">
	<path d="M82.4,940.6c2.2,0,4-1.8,4-4s-1.8-4-4-4s-4,1.8-4,4S80.2,940.6,82.4,940.6z"/>
</g>
<g id="Vector_132">
	<path d="M128.4,1036.6c2.2,0,4-1.8,4-4s-1.8-4-4-4s-4,1.8-4,4C124.4,1034.8,126.2,1036.6,128.4,1036.6z"/>
</g>
<g id="Vector_133">
	<path d="M232.4,1079.6c2.2,0,4-1.8,4-4s-1.8-4-4-4s-4,1.8-4,4C228.4,1077.8,230.2,1079.6,232.4,1079.6z"/>
</g>
<g id="Vector_134">
	<path d="M240.4,972.6c2.2,0,4-1.8,4-4s-1.8-4-4-4s-4,1.8-4,4S238.2,972.6,240.4,972.6z"/>
</g>
<g id="Vector_135">
	<path d="M368.4,1202.6c2.2,0,4-1.8,4-4s-1.8-4-4-4s-4,1.8-4,4C364.4,1200.8,366.2,1202.6,368.4,1202.6z"/>
</g>
<g id="Vector_136">
	<path d="M422.4,1298.6c2.2,0,4-1.8,4-4s-1.8-4-4-4s-4,1.8-4,4C418.4,1296.8,420.2,1298.6,422.4,1298.6z"/>
</g>
<g id="Vector_137">
	<path d="M531.4,1277.6c2.2,0,4-1.8,4-4s-1.8-4-4-4s-4,1.8-4,4C527.4,1275.8,529.2,1277.6,531.4,1277.6z"/>
</g>
<g id="Vector_138">
	<path d="M626.4,1230.6c2.2,0,4-1.8,4-4s-1.8-4-4-4s-4,1.8-4,4C622.4,1228.8,624.2,1230.6,626.4,1230.6z"/>
</g>
<g id="Vector_139">
	<path d="M341.4,1097.6c2.2,0,4-1.8,4-4s-1.8-4-4-4s-4,1.8-4,4C337.4,1095.8,339.2,1097.6,341.4,1097.6z"/>
</g>
<g id="Vector_140">
	<path d="M483.4,1188.6c2.2,0,4-1.8,4-4s-1.8-4-4-4s-4,1.8-4,4C479.4,1186.8,481.2,1188.6,483.4,1188.6z"/>
</g>
<g id="Vector_141">
	<path d="M610.4,1353.6c2.2,0,4-1.8,4-4s-1.8-4-4-4s-4,1.8-4,4C606.4,1351.8,608.2,1353.6,610.4,1353.6z"/>
</g>
<g id="Vector_142">
	<path d="M257.4,1194.6c2.2,0,4-1.8,4-4s-1.8-4-4-4c-2.2,0-4,1.8-4,4C253.4,1192.8,255.2,1194.6,257.4,1194.6z"/>
</g>
<g id="Vector_143">
	<path d="M56.4,627.6c2.2,0,4-1.8,4-4s-1.8-4-4-4s-4,1.8-4,4S54.2,627.6,56.4,627.6z"/>
</g>
<g id="Vector_144">
	<path d="M340.4,209.6c2.2,0,4-1.8,4-4s-1.8-4-4-4s-4,1.8-4,4S338.2,209.6,340.4,209.6z"/>
</g>
<g id="Vector_145">
	<path d="M259.4,269.6c2.2,0,4-1.8,4-4s-1.8-4-4-4s-4,1.8-4,4C255.4,267.8,257.2,269.6,259.4,269.6z"/>
</g>
<g id="Vector_146">
	<path d="M707.4,419.6c2.2,0,4-1.8,4-4s-1.8-4-4-4s-4,1.8-4,4C703.4,417.8,705.2,419.6,707.4,419.6z"/>
</g>
<g id="Vector_147">
	<path d="M707.4,544.6c2.2,0,4-1.8,4-4s-1.8-4-4-4s-4,1.8-4,4S705.2,544.6,707.4,544.6z"/>
</g>
<g id="Vector_148">
	<path d="M707.4,670.6c2.2,0,4-1.8,4-4s-1.8-4-4-4s-4,1.8-4,4S705.2,670.6,707.4,670.6z"/>
</g>
<g id="Vector_149">
	<path d="M707.4,795.6c2.2,0,4-1.8,4-4s-1.8-4-4-4s-4,1.8-4,4S705.2,795.6,707.4,795.6z"/>
</g>
<g id="Vector_150">
	<path d="M707.4,919.6c2.2,0,4-1.8,4-4s-1.8-4-4-4s-4,1.8-4,4S705.2,919.6,707.4,919.6z"/>
</g>
<g id="Vector_151">
	<path d="M707.4,1044.6c2.2,0,4-1.8,4-4s-1.8-4-4-4s-4,1.8-4,4C703.4,1042.8,705.2,1044.6,707.4,1044.6z"/>
</g>
<g id="Vector_152">
	<path d="M707.4,1170.6c2.2,0,4-1.8,4-4s-1.8-4-4-4s-4,1.8-4,4C703.4,1168.8,705.2,1170.6,707.4,1170.6z"/>
</g>
<g id="Vector_153">
	<path d="M764.4,1170.6c2.2,0,4-1.8,4-4s-1.8-4-4-4s-4,1.8-4,4C760.4,1168.8,762.2,1170.6,764.4,1170.6z"/>
</g>
<g id="Vector_154">
	<path d="M785.4,1109.6c2.2,0,4-1.8,4-4s-1.8-4-4-4s-4,1.8-4,4C781.4,1107.8,783.2,1109.6,785.4,1109.6z"/>
</g>
<g id="Vector_155">
	<path d="M801.4,1046.6c2.2,0,4-1.8,4-4s-1.8-4-4-4s-4,1.8-4,4C797.4,1044.8,799.2,1046.6,801.4,1046.6z"/>
</g>
<g id="Vector_156">
	<path d="M896.4,1054.6c2.2,0,4-1.8,4-4s-1.8-4-4-4s-4,1.8-4,4C892.4,1052.8,894.2,1054.6,896.4,1054.6z"/>
</g>
<g id="Vector_157">
	<path d="M864.4,1115.6c2.2,0,4-1.8,4-4s-1.8-4-4-4s-4,1.8-4,4C860.4,1113.8,862.2,1115.6,864.4,1115.6z"/>
</g>
<g id="Vector_158">
	<path d="M745.4,1107.6c2.2,0,4-1.8,4-4s-1.8-4-4-4s-4,1.8-4,4C741.4,1105.8,743.2,1107.6,745.4,1107.6z"/>
</g>
<g id="Vector_159">
	<path d="M878.4,1178.6c2.2,0,4-1.8,4-4s-1.8-4-4-4s-4,1.8-4,4C874.4,1176.8,876.2,1178.6,878.4,1178.6z"/>
</g>
<g id="Vector_160">
	<path d="M938.4,1128.6c2.2,0,4-1.8,4-4s-1.8-4-4-4s-4,1.8-4,4C934.4,1126.8,936.2,1128.6,938.4,1128.6z"/>
</g>
<g id="Vector_161">
	<path d="M974.4,1138.6c2.2,0,4-1.8,4-4s-1.8-4-4-4s-4,1.8-4,4C970.4,1136.8,972.2,1138.6,974.4,1138.6z"/>
</g>
<g id="Vector_162">
	<path d="M987.4,1071.6c2.2,0,4-1.8,4-4s-1.8-4-4-4s-4,1.8-4,4C983.4,1069.8,985.2,1071.6,987.4,1071.6z"/>
</g>
<g id="Vector_163">
	<path d="M1077.4,1021.6c2.2,0,4-1.8,4-4s-1.8-4-4-4s-4,1.8-4,4S1075.2,1021.6,1077.4,1021.6z"/>
</g>
<g id="Vector_164">
	<path d="M1059.4,943.6c2.2,0,4-1.8,4-4s-1.8-4-4-4s-4,1.8-4,4S1057.2,943.6,1059.4,943.6z"/>
</g>
<g id="Vector_165">
	<path d="M1143.4,881.6c2.2,0,4-1.8,4-4s-1.8-4-4-4s-4,1.8-4,4S1141.2,881.6,1143.4,881.6z"/>
</g>
<g id="Vector_166">
	<path d="M1020.4,868.6c2.2,0,4-1.8,4-4s-1.8-4-4-4s-4,1.8-4,4S1018.2,868.6,1020.4,868.6z"/>
</g>
<g id="Vector_167">
	<path d="M976.4,1000.6c2.2,0,4-1.8,4-4s-1.8-4-4-4s-4,1.8-4,4S974.2,1000.6,976.4,1000.6z"/>
</g>
<g id="Vector_168">
	<path d="M943.4,928.6c2.2,0,4-1.8,4-4s-1.8-4-4-4s-4,1.8-4,4S941.2,928.6,943.4,928.6z"/>
</g>
<g id="Vector_169">
	<path d="M870.4,988.6c2.2,0,4-1.8,4-4s-1.8-4-4-4s-4,1.8-4,4S868.2,988.6,870.4,988.6z"/>
</g>
<g id="Vector_170">
	<path d="M760.4,981.6c2.2,0,4-1.8,4-4s-1.8-4-4-4s-4,1.8-4,4S758.2,981.6,760.4,981.6z"/>
</g>
<g id="Vector_171">
	<path d="M825.4,920.6c2.2,0,4-1.8,4-4s-1.8-4-4-4s-4,1.8-4,4S823.2,920.6,825.4,920.6z"/>
</g>
<g id="Vector_172">
	<path d="M768.4,857.6c2.2,0,4-1.8,4-4s-1.8-4-4-4s-4,1.8-4,4S766.2,857.6,768.4,857.6z"/>
</g>
<g id="Vector_173">
	<path d="M895.4,861.6c2.2,0,4-1.8,4-4s-1.8-4-4-4s-4,1.8-4,4S893.2,861.6,895.4,861.6z"/>
</g>
<g id="Vector_174">
	<path d="M707.4,1295.6c2.2,0,4-1.8,4-4s-1.8-4-4-4s-4,1.8-4,4C703.4,1293.8,705.2,1295.6,707.4,1295.6z"/>
</g>
<g id="Vector_175">
	<path d="M783.4,236.6c2.2,0,4-1.8,4-4s-1.8-4-4-4s-4,1.8-4,4S781.2,236.6,783.4,236.6z"/>
</g>
<g id="Vector_176">
	<path d="M786.4,355.6c2.2,0,4-1.8,4-4s-1.8-4-4-4s-4,1.8-4,4C782.4,353.8,784.2,355.6,786.4,355.6z"/>
</g>
<g id="Vector_177">
	<path d="M745.4,356.6c2.2,0,4-1.8,4-4s-1.8-4-4-4s-4,1.8-4,4C741.4,354.8,743.2,356.6,745.4,356.6z"/>
</g>
<g id="Vector_178">
	<path d="M802.4,417.6c2.2,0,4-1.8,4-4s-1.8-4-4-4s-4,1.8-4,4C798.4,415.8,800.2,417.6,802.4,417.6z"/>
</g>
<g id="Vector_179">
	<path d="M760.4,482.6c2.2,0,4-1.8,4-4s-1.8-4-4-4s-4,1.8-4,4C756.4,480.8,758.2,482.6,760.4,482.6z"/>
</g>
<g id="Vector_180">
	<path d="M974.4,326.6c2.2,0,4-1.8,4-4s-1.8-4-4-4s-4,1.8-4,4C970.4,324.8,972.2,326.6,974.4,326.6z"/>
</g>
<g id="Vector_181">
	<path d="M939.4,335.6c2.2,0,4-1.8,4-4s-1.8-4-4-4s-4,1.8-4,4C935.4,333.8,937.2,335.6,939.4,335.6z"/>
</g>
<g id="Vector_182">
	<path d="M1071.4,207.6c2.2,0,4-1.8,4-4s-1.8-4-4-4s-4,1.8-4,4S1069.2,207.6,1071.4,207.6z"/>
</g>
<g id="Vector_183">
	<path d="M1156.4,269.6c2.2,0,4-1.8,4-4s-1.8-4-4-4s-4,1.8-4,4C1152.4,267.8,1154.2,269.6,1156.4,269.6z"/>
</g>
<g id="Vector_184">
	<path d="M976.4,464.6c2.2,0,4-1.8,4-4s-1.8-4-4-4s-4,1.8-4,4C972.4,462.8,974.2,464.6,976.4,464.6z"/>
</g>
<g id="Vector_185">
	<path d="M869.4,476.6c2.2,0,4-1.8,4-4s-1.8-4-4-4s-4,1.8-4,4C865.4,474.8,867.2,476.6,869.4,476.6z"/>
</g>
<g id="Vector_186">
	<path d="M898.4,409.6c2.2,0,4-1.8,4-4s-1.8-4-4-4s-4,1.8-4,4C894.4,407.8,896.2,409.6,898.4,409.6z"/>
</g>
<g id="Vector_187">
	<path d="M864.4,347.6c2.2,0,4-1.8,4-4s-1.8-4-4-4s-4,1.8-4,4C860.4,345.8,862.2,347.6,864.4,347.6z"/>
</g>
<g id="Group">
	<path id="F9" fill="#E1E0E0" d="M187.1,370.9c14.9,0,27-12.2,27-27.3s-12.1-27.3-27-27.3s-27,12.2-27,27.3S172.2,370.9,187.1,370.9
		z"/>
	<path id="Vector_188" fill="none" stroke="#000000" stroke-width="2.28" stroke-miterlimit="5.7" d="M187.1,317.2
		c14.6,0,26.4,11.9,26.4,26.4c0,14.6-11.8,26.4-26.4,26.4c-14.6,0-26.4-11.8-26.4-26.4S172.6,317.2,187.1,317.2z"/>
	<text transform="matrix(1 0 0 1 176.2 349.3)" font-family="'ArialMT'" font-size="21px">F9</text>
</g>
<g id="Group_2">
	<path id="Nz" fill="#E1E0E0" d="M706.2,128.4c14.9,0,27-12.2,27-27.3s-12.1-27.3-27-27.3s-27,12.2-27,27.3S691.3,128.4,706.2,128.4
		z"/>
	<path id="Vector_189" fill="none" stroke="#000000" stroke-width="2.28" stroke-miterlimit="5.7" d="M706.2,74.7
		c14.6,0,26.4,11.9,26.4,26.4c0,14.6-11.8,26.4-26.4,26.4s-26.4-11.8-26.4-26.4S691.6,74.7,706.2,74.7z"/>
	<text transform="matrix(1 0 0 1 695.22 106.76)" font-family="'ArialMT'" font-size="21px">Nz</text>
</g>
<g id="Group_3">
	<path id="Fz" fill="#E1E0E0" d="M705.9,512.6c14.9,0,27-12.2,27-27.3c0-15.1-12.1-27.3-27-27.3s-27,12.2-27,27.3
		C679,500.4,691,512.6,705.9,512.6z"/>
	<path id="Vector_190" fill="#010202" stroke="#000000" stroke-width="2.28" stroke-miterlimit="5.7" d="M705.9,458.9
		c14.6,0,26.4,11.9,26.4,26.4c0,14.6-11.8,26.4-26.4,26.4s-26.4-11.8-26.4-26.4S691.4,458.9,705.9,458.9z"/>
	<text transform="matrix(1 0 0 1 694.99 491)" fill="#FDFDFC" font-family="'ArialMT'" font-size="21px">Fz</text>
</g>
<g id="Group_4">
	<path id="Fpz" fill="#E1E0E0" d="M707.3,254.8c14.9,0,27-12.2,27-27.3s-12.1-27.3-27-27.3s-27,12.2-27,27.3
		S692.4,254.8,707.3,254.8z"/>
	<path id="Vector_191" fill="#010202" stroke="#000000" stroke-width="2.28" stroke-miterlimit="5.7" d="M707.3,201.1
		c14.6,0,26.4,11.9,26.4,26.4c0,14.6-11.8,26.4-26.4,26.4S681,242,681,227.5S692.8,201.1,707.3,201.1z"/>
	<text transform="matrix(1 0 0 1 690.1 233.18)" fill="#FDFDFC" font-family="'ArialMT'" font-size="21px">Fpz</text>
</g>
<g id="Group_5">
	<path id="Fp1" fill="#E1E0E0" d="M552.5,271.9c14.9,0,27-12.2,27-27.3s-12.1-27.3-27-27.3s-27,12.2-27,27.3
		C525.5,259.7,537.6,271.9,552.5,271.9z"/>
	<path id="Vector_192" fill="#010202" stroke="#000000" stroke-width="2.28" stroke-miterlimit="5.7" d="M552.5,218.2
		c14.6,0,26.4,11.9,26.4,26.4c0,14.6-11.8,26.4-26.4,26.4s-26.4-11.8-26.4-26.4C526.1,230,537.9,218.2,552.5,218.2z"/>
	<text transform="matrix(1 0 0 1 535.24 250.26)" fill="#FDFDFC" font-family="'ArialMT'" font-size="21px">Fp1</text>
</g>
<g id="Group_6">
	<path id="Fp2" fill="#E1E0E0" d="M860.6,272.3c14.9,0,27-12.2,27-27.3s-12.1-27.3-27-27.3s-27,12.2-27,27.3
		C833.6,260,845.7,272.3,860.6,272.3z"/>
	<path id="Vector_193" fill="#010202" stroke="#000000" stroke-width="2.28" stroke-miterlimit="5.7" d="M860.6,218.6
		c14.6,0,26.4,11.9,26.4,26.4c0,14.6-11.8,26.4-26.4,26.4s-26.4-11.8-26.4-26.4C834.2,230.4,846,218.5,860.6,218.6z"/>
	<text transform="matrix(1 0 0 1 843.36 250.63)" fill="#FDFDFC" font-family="'ArialMT'" font-size="21px">Fp2</text>
</g>
<g id="Group_7">
	<path id="AFp3" fill="#E2E1E1" d="M602.5,316.5c14.9,0,27-12.2,27-27.3s-12.1-27.3-27-27.3s-27,12.2-27,27.3
		S587.6,316.5,602.5,316.5z"/>
	<path id="Vector_194" fill="#FDFDFD" stroke="#010101" stroke-width="2.28" stroke-miterlimit="5.7" d="M602.5,262.9
		c14.6,0,26.4,11.9,26.4,26.4c0,14.6-11.8,26.4-26.4,26.4c-14.6,0-26.4-11.8-26.4-26.4S588,262.8,602.5,262.9z"/>
	<text transform="matrix(1 0 0 1 580.57 295.227)" fill="#010101" font-family="'ArialMT'" font-size="19px">AFp3</text>
</g>
<g id="Group_8">
	<path id="AFp4" fill="#E2E1E1" d="M812.6,316.9c14.9,0,27-12.2,27-27.3s-12.1-27.3-27-27.3s-27,12.2-27,27.3
		S797.7,316.9,812.6,316.9z"/>
	<path id="Vector_195" fill="#FDFDFD" stroke="#010101" stroke-width="2.28" stroke-miterlimit="5.7" d="M812.6,263.2
		c14.6,0,26.4,11.9,26.4,26.4c0,14.6-11.8,26.4-26.4,26.4s-26.4-11.8-26.4-26.4S798.1,263.2,812.6,263.2z"/>
	<text transform="matrix(1 0 0 1 790.67 295.567)" fill="#010101" font-family="'ArialMT'" font-size="19px">AFp4</text>
</g>
<g id="Group_9">
	<path id="AF7" fill="#E2E1E1" d="M405.1,332.2c14.9,0,27-12.2,27-27.3s-12.1-27.3-27-27.3s-27,12.2-27,27.3
		S390.2,332.2,405.1,332.2z"/>
	<path id="Vector_196" fill="none" stroke="#010101" stroke-width="2.28" stroke-miterlimit="5.7" d="M405.1,278.5
		c14.6,0,26.4,11.9,26.4,26.4c0,14.6-11.8,26.4-26.4,26.4s-26.4-11.8-26.4-26.4S390.5,278.5,405.1,278.5z"/>
	<text transform="matrix(1 0 0 1 386.13 312.57)" fill="#010101" font-family="'ArialMT'" font-size="21px">AF7</text>
</g>
<g id="Group_10">
	<path id="F10" fill="#E2E1E1" d="M1226,365c14.9,0,27-12.2,27-27.3s-12.1-27.3-27-27.3s-27,12.2-27,27.3S1211.1,365,1226,365z"/>
	<path id="Vector_197" fill="none" stroke="#010101" stroke-width="2.28" stroke-miterlimit="5.7" d="M1226,311.3
		c14.6,0,26.4,11.9,26.4,26.4c0,14.6-11.8,26.4-26.4,26.4s-26.4-11.8-26.4-26.4S1211.5,311.3,1226,311.3z"/>
	<text transform="matrix(1 0 0 1 1208 345.28)" font-family="'ArialMT'" font-size="21px">F10</text>
</g>
<g id="Group_11">
	<path id="AF8" fill="#E2E1E1" d="M1005.9,336.5c14.9,0,27-12.2,27-27.3c0-15.1-12.1-27.3-27-27.3s-27,12.2-27,27.3
		C978.9,324.2,991,336.5,1005.9,336.5z"/>
	<path id="Vector_198" fill="none" stroke="#010101" stroke-width="2.28" stroke-miterlimit="5.7" d="M1005.9,282.8
		c14.6,0,26.4,11.9,26.4,26.4c0,14.6-11.8,26.4-26.4,26.4s-26.4-11.8-26.4-26.4C979.5,294.6,991.3,282.8,1005.9,282.8z"/>
	<text transform="matrix(1 0 0 1 987.95 314.84)" fill="#010101" font-family="'ArialMT'" font-size="21px">AF8</text>
</g>
<g id="Group_12">
	<path id="AFz" fill="#E2E1E1" d="M707.6,382.4c14.9,0,27-12.2,27-27.3s-12.1-27.3-27-27.3s-27,12.2-27,27.3
		S692.7,382.4,707.6,382.4z"/>
	<path id="Vector_199" fill="none" stroke="#010101" stroke-width="2.28" stroke-miterlimit="5.7" d="M707.6,328.7
		c14.6,0,26.4,11.9,26.4,26.4c0,14.6-11.8,26.4-26.4,26.4s-26.4-11.8-26.4-26.4S693.1,328.6,707.6,328.7z"/>
	<text transform="matrix(1 0 0 1 690.67 360.73)" fill="#010101" font-family="'ArialMT'" font-size="21px">AFz</text>
</g>
<g id="Group_13">
	<path id="AF5h" fill="#E2E1E1" d="M509.9,370.1c14.9,0,27-12.2,27-27.3c0-15.1-12.1-27.3-27-27.3s-27,12.2-27,27.3
		C483,357.8,495,370.1,509.9,370.1z"/>
	<path id="Vector_200" fill="#FDFDFD" stroke="#010101" stroke-width="2.28" stroke-miterlimit="5.7" d="M509.9,316.4
		c14.6,0,26.4,11.9,26.4,26.4c0,14.6-11.8,26.4-26.4,26.4s-26.4-11.8-26.4-26.4S495.4,316.4,509.9,316.4z"/>
	<text transform="matrix(1 0 0 1 490.98 348.44)" fill="#010101" font-family="'Arial-BoldMT'" font-size="14px">AF5h</text>
</g>
<g id="Group_14">
	<path id="AF3h" fill="#E2E1E1" d="M587,378.5c14.9,0,27-12.2,27-27.3s-12.1-27.3-27-27.3s-27,12.2-27,27.3S572.1,378.5,587,378.5z"
		/>
	<path id="Vector_201" fill="#FDFDFD" stroke="#010101" stroke-width="2.28" stroke-miterlimit="5.7" d="M587,324.8
		c14.6,0,26.4,11.9,26.4,26.4c0,14.6-11.8,26.4-26.4,26.4s-26.4-11.8-26.4-26.4S572.5,324.8,587,324.8z"/>
	<text transform="matrix(1 0 0 1 569.08 355.89)" fill="#010101" font-family="'Arial-BoldMT'" font-size="14px">AF3h</text>
</g>
<g id="Group_15">
	<path id="AF4h" fill="#E2E1E1" d="M826.6,376.7c14.9,0,27-12.2,27-27.3s-12.1-27.3-27-27.3s-27,12.2-27,27.3
		S811.7,376.7,826.6,376.7z"/>
	<path id="Vector_202" fill="#FDFDFD" stroke="#010101" stroke-width="2.28" stroke-miterlimit="5.7" d="M826.6,323
		c14.6,0,26.4,11.9,26.4,26.4c0,14.6-11.8,26.4-26.4,26.4s-26.4-11.8-26.4-26.4S812,323,826.6,323z"/>
	<text transform="matrix(1 0 0 1 807.61 355.05)" fill="#010101" font-family="'Arial-BoldMT'" font-size="14px">AF4h</text>
</g>
<g id="Group_16">
	<path id="AF6h" fill="#E2E1E1" d="M903.4,368.1c14.9,0,27-12.2,27-27.3s-12.1-27.3-27-27.3s-27,12.2-27,27.3
		S888.5,368.1,903.4,368.1z"/>
	<path id="Vector_203" fill="#FDFDFD" stroke="#010101" stroke-width="2.28" stroke-miterlimit="5.7" d="M903.4,314.4
		c14.6,0,26.4,11.9,26.4,26.4c0,14.6-11.8,26.4-26.4,26.4S877,355.4,877,340.8S888.9,314.4,903.4,314.4z"/>
	<text transform="matrix(1 0 0 1 884.47 346.45)" fill="#010101" font-family="'Arial-BoldMT'" font-size="14px">AF6h</text>
</g>
<g id="Group_17">
	<path id="AFF7h" fill="#E2E1E1" d="M380.7,411.1c14.9,0,27-12.2,27-27.3s-12.1-27.3-27-27.3s-27,12.2-27,27.3
		S365.8,411.1,380.7,411.1z"/>
	<path id="Vector_204" fill="#FDFDFD" stroke="#010101" stroke-width="2.28" stroke-miterlimit="5.7" d="M380.7,357.4
		c14.6,0,26.4,11.9,26.4,26.4c0,14.6-11.8,26.4-26.4,26.4s-26.4-11.8-26.4-26.4S366.1,357.4,380.7,357.4z"/>
	<text transform="matrix(1 0 0 1 358.72 389.49)" fill="#010101" font-family="'Arial-BoldMT'" font-size="14px">AFF7h</text>
</g>
<g id="Group_18">
	<path id="AFF5h" fill="#E2E1E1" d="M469.5,430c14.9,0,27-12.2,27-27.3s-12.1-27.3-27-27.3s-27,12.2-27,27.3S454.6,430,469.5,430z"
		/>
	<path id="Vector_205" fill="#FDFDFD" stroke="#010101" stroke-width="2.28" stroke-miterlimit="5.7" d="M469.5,376.3
		c14.6,0,26.4,11.9,26.4,26.4c0,14.6-11.8,26.4-26.4,26.4s-26.4-11.8-26.4-26.4S454.9,376.2,469.5,376.3z"/>
	<text transform="matrix(1 0 0 1 447.54 408.33)" fill="#010101" font-family="'Arial-BoldMT'" font-size="14px">AFF5h</text>
</g>
<g id="Group_19">
	<path id="AFF3h" fill="#E2E1E1" d="M563.5,444.9c14.9,0,27-12.2,27-27.3s-12.1-27.3-27-27.3s-27,12.2-27,27.3
		S548.6,444.9,563.5,444.9z"/>
	<path id="Vector_206" fill="#FDFDFD" stroke="#010101" stroke-width="2.28" stroke-miterlimit="5.7" d="M563.5,391.2
		c14.6,0,26.4,11.9,26.4,26.4c0,14.6-11.8,26.4-26.4,26.4s-26.4-11.8-26.4-26.4S549,391.1,563.5,391.2z"/>
	<text transform="matrix(1 0 0 1 541.59 423.23)" fill="#010101" font-family="'Arial-BoldMT'" font-size="14px">AFF3h</text>
</g>
<g id="Group_20">
	<path id="AFF1h" fill="#E2E1E1" d="M659.2,452.5c14.9,0,27-12.2,27-27.3s-12.1-27.3-27-27.3s-27,12.2-27,27.3
		S644.3,452.5,659.2,452.5z"/>
	<path id="Vector_207" fill="#FDFDFD" stroke="#010101" stroke-width="2.28" stroke-miterlimit="5.7" d="M659.2,398.8
		c14.6,0,26.4,11.9,26.4,26.4c0,14.6-11.8,26.4-26.4,26.4s-26.4-11.8-26.4-26.4S644.7,398.8,659.2,398.8z"/>
	<text transform="matrix(1 0 0 1 637.27 430.86)" fill="#010101" font-family="'Arial-BoldMT'" font-size="14px">AFF1h</text>
</g>
<g id="Group_21">
	<path id="AFF2h" fill="#E2E1E1" d="M759.3,448.4c14.9,0,27-12.2,27-27.3c0-15.1-12.1-27.3-27-27.3s-27,12.2-27,27.3
		C732.4,436.1,744.4,448.4,759.3,448.4z"/>
	<path id="Vector_208" fill="#FDFDFD" stroke="#010101" stroke-width="2.28" stroke-miterlimit="5.7" d="M759.3,394.7
		c14.6,0,26.4,11.9,26.4,26.4c0,14.6-11.8,26.4-26.4,26.4S733,435.6,733,421S744.8,394.7,759.3,394.7z"/>
	<text transform="matrix(1 0 0 1 737.39 426.75)" fill="#010101" font-family="'Arial-BoldMT'" font-size="14px">AFF2h</text>
</g>
<g id="Group_22">
	<path id="AFF4h" fill="#E2E1E1" d="M852.7,441.8c14.9,0,27-12.2,27-27.3s-12.1-27.3-27-27.3s-27,12.2-27,27.3
		S837.8,441.8,852.7,441.8z"/>
	<path id="Vector_209" fill="#FDFDFD" stroke="#010101" stroke-width="2.28" stroke-miterlimit="5.7" d="M852.7,388.1
		c14.6,0,26.4,11.9,26.4,26.4c0,14.6-11.8,26.4-26.4,26.4s-26.4-11.8-26.4-26.4S838.1,388.1,852.7,388.1z"/>
	<text transform="matrix(1 0 0 1 830.75 420.17)" fill="#010101" font-family="'Arial-BoldMT'" font-size="14px">AFF4h</text>
</g>
<g id="Group_23">
	<path id="AFF6h" fill="#E2E1E1" d="M945.7,430.4c14.9,0,27-12.2,27-27.3s-12.1-27.3-27-27.3s-27,12.2-27,27.3
		S930.8,430.4,945.7,430.4z"/>
	<path id="Vector_210" fill="#FDFDFD" stroke="#010101" stroke-width="2.28" stroke-miterlimit="5.7" d="M945.7,376.7
		c14.6,0,26.4,11.9,26.4,26.4c0,14.6-11.8,26.4-26.4,26.4s-26.4-11.8-26.4-26.4S931.2,376.7,945.7,376.7z"/>
	<text transform="matrix(1 0 0 1 923.77 408.76)" fill="#010101" font-family="'Arial-BoldMT'" font-size="14px">AFF6h</text>
</g>
<g id="Group_24">
	<path id="AFF8h" fill="#E2E1E1" d="M1030.7,411.7c14.9,0,27-12.2,27-27.3s-12.1-27.3-27-27.3s-27,12.2-27,27.3
		S1015.8,411.7,1030.7,411.7z"/>
	<path id="Vector_211" fill="#FDFDFD" stroke="#010101" stroke-width="2.28" stroke-miterlimit="5.7" d="M1030.7,358
		c14.6,0,26.4,11.9,26.4,26.4c0,14.6-11.8,26.4-26.4,26.4s-26.4-11.8-26.4-26.4S1016.1,358,1030.7,358z"/>
	<text transform="matrix(1 0 0 1 1008.71 390.1)" fill="#010101" font-family="'Arial-BoldMT'" font-size="14px">AFF8h</text>
</g>
<g id="Group_25">
	<path id="F7" fill="#E2E1E1" d="M290.1,445.8c14.9,0,27-12.2,27-27.3s-12.1-27.3-27-27.3s-27,12.2-27,27.3S275.2,445.8,290.1,445.8
		z"/>
	<path id="Vector_212" fill="#020202" stroke="#010101" stroke-width="2.28" stroke-miterlimit="5.7" d="M290.1,392.1
		c14.6,0,26.4,11.9,26.4,26.4c0,14.6-11.8,26.4-26.4,26.4s-26.4-11.8-26.4-26.4S275.5,392.1,290.1,392.1z"/>
	<text transform="matrix(1 0 0 1 278.16 425.17)" fill="#FDFDFD" font-family="'ArialMT'" font-size="21px">F7</text>
</g>
<g id="Group_26">
	<path id="F3" fill="#E2E1E1" d="M489.6,500.3c14.9,0,27-12.2,27-27.3s-12.1-27.3-27-27.3s-27,12.2-27,27.3S474.7,500.3,489.6,500.3
		z"/>
	<path id="Vector_213" fill="#020202" stroke="#010101" stroke-width="2.28" stroke-miterlimit="5.7" d="M489.6,446.6
		c14.6,0,26.4,11.9,26.4,26.4c0,14.6-11.8,26.4-26.4,26.4s-26.4-11.8-26.4-26.4S475,446.5,489.6,446.6z"/>
	<text transform="matrix(1 0 0 1 478.65 478.63)" fill="#FDFDFD" font-family="'ArialMT'" font-size="21px">F3</text>
</g>
<g id="Group_27">
	<path id="F4" fill="#E2E1E1" d="M927.5,497.5c14.9,0,27-12.2,27-27.3s-12.1-27.3-27-27.3s-27,12.2-27,27.3S912.6,497.5,927.5,497.5
		z"/>
	<path id="Vector_214" fill="#020202" stroke="#010101" stroke-width="2.28" stroke-miterlimit="5.7" d="M927.5,443.9
		c14.6,0,26.4,11.9,26.4,26.4c0,14.6-11.8,26.4-26.4,26.4s-26.4-11.8-26.4-26.4S913,443.8,927.5,443.9z"/>
	<text transform="matrix(1 0 0 1 916.56 475.92)" fill="#FDFDFD" font-family="'ArialMT'" font-size="21px">F4</text>
</g>
<g id="Group_28">
	<path id="F8" fill="#E2E1E1" d="M1128.1,438.5c14.9,0,27-12.2,27-27.3c0-15.1-12.1-27.3-27-27.3s-27,12.2-27,27.3
		S1113.2,438.5,1128.1,438.5z"/>
	<path id="Vector_215" fill="#020202" stroke="#010101" stroke-width="2.28" stroke-miterlimit="5.7" d="M1128.1,384.8
		c14.6,0,26.4,11.9,26.4,26.4c0,14.6-11.8,26.4-26.4,26.4s-26.4-11.8-26.4-26.4C1101.8,396.6,1113.6,384.8,1128.1,384.8z"/>
	<text transform="matrix(1 0 0 1 1117.1801 416.87)" fill="#FDFDFD" font-family="'ArialMT'" font-size="21px">F8</text>
</g>
<g id="Group_29">
	<path id="F5" fill="#E2E1E1" d="M384.2,480.1c14.9,0,27-12.2,27-27.3s-12.1-27.3-27-27.3s-27,12.2-27,27.3S369.3,480.1,384.2,480.1
		z"/>
	<path id="Vector_216" fill="none" stroke="#010101" stroke-width="2.28" stroke-miterlimit="5.7" d="M384.2,426.4
		c14.6,0,26.4,11.9,26.4,26.4c0,14.6-11.8,26.4-26.4,26.4s-26.4-11.8-26.4-26.4S369.7,426.4,384.2,426.4z"/>
	<text transform="matrix(1 0 0 1 373.28 458.48)" fill="#010101" font-family="'ArialMT'" font-size="21px">F5</text>
</g>
<g id="Group_30">
	<path id="F1" fill="#E2E1E1" d="M602.2,510.5c14.9,0,27-12.2,27-27.3c0-15.1-12.1-27.3-27-27.3s-27,12.2-27,27.3
		S587.3,510.5,602.2,510.5z"/>
	<path id="Vector_217" fill="none" stroke="#010101" stroke-width="2.28" stroke-miterlimit="5.7" d="M602.2,456.8
		c14.6,0,26.4,11.9,26.4,26.4c0,14.6-11.8,26.4-26.4,26.4s-26.4-11.8-26.4-26.4C575.8,468.6,587.6,456.8,602.2,456.8z"/>
	<text transform="matrix(1 0 0 1 591.21 488.87)" fill="#010101" font-family="'ArialMT'" font-size="21px">F1</text>
</g>
<g id="Group_31">
	<path id="C3-2" fill="#E2E1E1" d="M817.7,505.8c14.9,0,27-12.2,27-27.3c0-15.1-12.1-27.3-27-27.3s-27,12.2-27,27.3
		C790.7,493.5,802.8,505.8,817.7,505.8z"/>
	<path id="Vector_218" fill="none" stroke="#010101" stroke-width="2.28" stroke-miterlimit="5.7" d="M817.7,452
		c14.6,0,26.4,11.9,26.4,26.4c0,14.6-11.8,26.4-26.4,26.4s-26.4-11.8-26.4-26.4C791.3,463.9,803.1,452,817.7,452z"/>
	<text transform="matrix(1 0 0 1 806.72 484.12)" fill="#010101" font-family="'ArialMT'" font-size="21px">F2</text>
</g>
<g id="Group_32">
	<path id="F6" fill="#E2E1E1" d="M1027.7,479.2c14.9,0,27-12.2,27-27.3c0-15.1-12.1-27.3-27-27.3s-27,12.2-27,27.3
		C1000.7,466.9,1012.8,479.2,1027.7,479.2z"/>
	<path id="Vector_219" fill="none" stroke="#010101" stroke-width="2.28" stroke-miterlimit="5.7" d="M1027.7,425.5
		c14.6,0,26.4,11.9,26.4,26.4c0,14.6-11.8,26.4-26.4,26.4s-26.4-11.8-26.4-26.4C1001.3,437.3,1013.2,425.4,1027.7,425.5z"/>
	<text transform="matrix(1 0 0 1 1016.77 457.53)" fill="#010101" font-family="'ArialMT'" font-size="21px">F6</text>
</g>
<g id="Group_33">
	<path id="FFT9h" fill="#E2E1E1" d="M182.1,488.8c14.9,0,27-12.2,27-27.3c0-15.1-12.1-27.3-27-27.3s-27,12.2-27,27.3
		C155.1,476.6,167.2,488.8,182.1,488.8z"/>
	<path id="Vector_220" fill="#FDFDFD" stroke="#010101" stroke-width="2.28" stroke-miterlimit="5.7" d="M182.1,435.1
		c14.6,0,26.4,11.9,26.4,26.4c0,14.6-11.8,26.4-26.4,26.4s-26.4-11.8-26.4-26.4S167.6,435.1,182.1,435.1z"/>
	<text transform="matrix(1 0 0 1 160.16 467.21)" fill="#010101" font-family="'Arial-BoldMT'" font-size="14px">FFT9h</text>
</g>
<g id="Group_34">
	<path id="FFT7h" fill="#E2E1E1" d="M292.3,536.7c14.9,0,27-12.2,27-27.3c0-15.1-12.1-27.3-27-27.3s-27,12.2-27,27.3
		S277.4,536.7,292.3,536.7z"/>
	<path id="Vector_221" fill="#FDFDFD" stroke="#010101" stroke-width="2.28" stroke-miterlimit="5.7" d="M292.3,483
		c14.6,0,26.4,11.9,26.4,26.4c0,14.6-11.8,26.4-26.4,26.4S266,524,266,509.4S277.8,483,292.3,483z"/>
	<text transform="matrix(1 0 0 1 270.36 515.09)" fill="#010101" font-family="'Arial-BoldMT'" font-size="14px">FFT7h</text>
</g>
<g id="Group_35">
	<path id="FFC5h" fill="#E2E1E1" d="M403.4,558.9c14.9,0,27-12.2,27-27.3s-12.1-27.3-27-27.3s-27,12.2-27,27.3
		C376.5,546.7,388.5,558.9,403.4,558.9z"/>
	<path id="Vector_222" fill="#FDFDFD" stroke="#010101" stroke-width="2.28" stroke-miterlimit="5.7" d="M403.4,505.2
		c14.6,0,26.4,11.9,26.4,26.4c0,14.6-11.8,26.4-26.4,26.4S377,546.2,377,531.6S388.9,505.2,403.4,505.2z"/>
	<text transform="matrix(1 0 0 1 381.48 537.29)" fill="#010101" font-family="'Arial-BoldMT'" font-size="14px">FFC5h</text>
</g>
<g id="Group_36">
	<path id="FFC3h" fill="#E2E1E1" d="M527.2,575.2c14.9,0,27-12.2,27-27.3s-12.1-27.3-27-27.3s-27,12.2-27,27.3
		S512.3,575.2,527.2,575.2z"/>
	<path id="Vector_223" fill="#FDFDFD" stroke="#010101" stroke-width="2.28" stroke-miterlimit="5.7" d="M527.2,521.5
		c14.6,0,26.4,11.9,26.4,26.4c0,14.6-11.8,26.4-26.4,26.4s-26.4-11.8-26.4-26.4S512.7,521.5,527.2,521.5z"/>
	<text transform="matrix(1 0 0 1 505.27 553.61)" fill="#010101" font-family="'Arial-BoldMT'" font-size="14px">FFC3h</text>
</g>
<g id="Group_37">
	<path id="FFC1h" fill="#E2E1E1" d="M647,576.9c14.9,0,27-12.2,27-27.3s-12.1-27.3-27-27.3s-27,12.2-27,27.3S632.1,576.9,647,576.9z
		"/>
	<path id="Vector_224" fill="#FDFDFD" stroke="#010101" stroke-width="2.28" stroke-miterlimit="5.7" d="M647,523.2
		c14.6,0,26.4,11.9,26.4,26.4c0,14.6-11.8,26.4-26.4,26.4s-26.4-11.8-26.4-26.4S632.4,523.2,647,523.2z"/>
	<text transform="matrix(1 0 0 1 625.02 555.26)" fill="#010101" font-family="'Arial-BoldMT'" font-size="14px">FFC1h</text>
</g>
<g id="Group_38">
	<path id="FFC2h" fill="#E2E1E1" d="M767.4,577.6c14.9,0,27-12.2,27-27.3s-12.1-27.3-27-27.3s-27,12.2-27,27.3
		C740.5,565.4,752.5,577.6,767.4,577.6z"/>
	<path id="Vector_225" fill="#FDFDFD" stroke="#010101" stroke-width="2.28" stroke-miterlimit="5.7" d="M767.4,523.9
		c14.6,0,26.4,11.9,26.4,26.4c0,14.6-11.8,26.4-26.4,26.4S741,564.9,741,550.3C741.1,535.7,752.9,523.9,767.4,523.9z"/>
	<text transform="matrix(1 0 0 1 745.48 555.98)" fill="#010101" font-family="'Arial-BoldMT'" font-size="14px">FFC2h</text>
</g>
<g id="Group_39">
	<path id="FFC4h" fill="#E2E1E1" d="M888.3,571.9c14.9,0,27-12.2,27-27.3s-12.1-27.3-27-27.3s-27,12.2-27,27.3
		S873.4,571.9,888.3,571.9z"/>
	<path id="Vector_226" fill="#FDFDFD" stroke="#010101" stroke-width="2.28" stroke-miterlimit="5.7" d="M888.3,518.2
		c14.6,0,26.4,11.9,26.4,26.4c0,14.6-11.8,26.4-26.4,26.4s-26.4-11.8-26.4-26.4S873.7,518.2,888.3,518.2z"/>
	<text transform="matrix(1 0 0 1 866.31 550.26)" fill="#010101" font-family="'Arial-BoldMT'" font-size="14px">FFC4h</text>
</g>
<g id="Group_40">
	<path id="FFC6h" fill="#E2E1E1" d="M1007.6,561.2c14.9,0,27-12.2,27-27.3s-12.1-27.3-27-27.3s-27,12.2-27,27.3
		S992.7,561.2,1007.6,561.2z"/>
	<path id="Vector_227" fill="#FDFDFD" stroke="#010101" stroke-width="2.28" stroke-miterlimit="5.7" d="M1007.6,507.5
		c14.6,0,26.4,11.9,26.4,26.4c0,14.6-11.8,26.4-26.4,26.4s-26.4-11.8-26.4-26.4S993,507.5,1007.6,507.5z"/>
	<text transform="matrix(1 0 0 1 985.65 539.56)" fill="#010101" font-family="'Arial-BoldMT'" font-size="14px">FFC6h</text>
</g>
<g id="Group_41">
	<path id="FFC8h" fill="#E2E1E1" d="M1118.9,533.9c14.9,0,27-12.2,27-27.3c0-15.1-12.1-27.3-27-27.3s-27,12.2-27,27.3
		C1091.9,521.6,1104,533.9,1118.9,533.9z"/>
	<path id="Vector_228" fill="#FDFDFD" stroke="#010101" stroke-width="2.28" stroke-miterlimit="5.7" d="M1118.9,480.2
		c14.6,0,26.4,11.9,26.4,26.4c0,14.6-11.8,26.4-26.4,26.4s-26.4-11.8-26.4-26.4S1104.3,480.1,1118.9,480.2z"/>
	<text transform="matrix(1 0 0 1 1096.9399 512.23)" fill="#010101" font-family="'Arial-BoldMT'" font-size="14px">FFC8h</text>
</g>
<g id="Group_42">
	<path id="FFT10h" fill="#E2E1E1" d="M1233.7,486.1c14.9,0,27-12.2,27-27.3s-12.1-27.3-27-27.3s-27,12.2-27,27.3
		S1218.8,486.1,1233.7,486.1z"/>
	<path id="Vector_229" fill="#FDFDFD" stroke="#010101" stroke-width="2.28" stroke-miterlimit="5.7" d="M1233.7,432.4
		c14.6,0,26.4,11.9,26.4,26.4c0,14.6-11.8,26.4-26.4,26.4s-26.4-11.8-26.4-26.4S1219.1,432.4,1233.7,432.4z"/>
	<text transform="matrix(1 0 0 1 1208.7 464.51)" fill="#010101" font-family="'Arial-BoldMT'" font-size="14px">FFT10h</text>
</g>
<g id="Group_43">
	<path id="FT9" fill="#E2E1E1" d="M78.4,553.5c14.9,0,27-12.2,27-27.3s-12.1-27.3-27-27.3s-27,12.2-27,27.3S63.5,553.5,78.4,553.5z"
		/>
	<path id="Vector_230" fill="none" stroke="#010101" stroke-width="2.28" stroke-miterlimit="5.7" d="M78.4,499.8
		c14.6,0,26.4,11.9,26.4,26.4c0,14.6-11.8,26.4-26.4,26.4S52,540.8,52,526.2S63.9,499.8,78.4,499.8z"/>
	<text transform="matrix(1 0 0 1 60.49 531.88)" fill="#010101" font-family="'ArialMT'" font-size="21px">FT9</text>
</g>
<g id="Group_44">
	<path id="FT7" fill="#E2E1E1" d="M205.4,598.2c14.9,0,27-12.2,27-27.3s-12.1-27.3-27-27.3s-27,12.2-27,27.3
		S190.5,598.2,205.4,598.2z"/>
	<path id="Vector_231" fill="none" stroke="#010101" stroke-width="2.28" stroke-miterlimit="5.7" d="M205.4,544.5
		c14.6,0,26.4,11.9,26.4,26.4c0,14.6-11.8,26.4-26.4,26.4S179,585.5,179,570.9S190.9,544.5,205.4,544.5z"/>
	<text transform="matrix(1 0 0 1 185.49 576.6)" fill="#010101" font-family="'ArialMT'" font-size="21px">FT7</text>
</g>
<g id="Group_45">
	<path id="FC5" fill="#E2E1E1" d="M329.1,621c14.9,0,27-12.2,27-27.3s-12.1-27.3-27-27.3s-27,12.2-27,27.3S314.2,621,329.1,621z"/>
	<path id="Vector_232" fill="none" stroke="#010101" stroke-width="2.28" stroke-miterlimit="5.7" d="M329.1,567.3
		c14.6,0,26.4,11.9,26.4,26.4c0,14.6-11.8,26.4-26.4,26.4s-26.4-11.8-26.4-26.4S314.5,567.3,329.1,567.3z"/>
	<text transform="matrix(1 0 0 1 309.16 599.4)" fill="#010101" font-family="'ArialMT'" font-size="21px">FC5</text>
</g>
<g id="Group_46">
	<path id="FC3" fill="#E2E1E1" d="M455.9,634.9c14.9,0,27-12.2,27-27.3s-12.1-27.3-27-27.3s-27,12.2-27,27.3
		S440.9,634.9,455.9,634.9z"/>
	<path id="Vector_233" fill="none" stroke="#010101" stroke-width="2.28" stroke-miterlimit="5.7" d="M455.9,581.2
		c14.6,0,26.4,11.9,26.4,26.4c0,14.6-11.8,26.4-26.4,26.4s-26.4-11.8-26.4-26.4S441.3,581.2,455.9,581.2z"/>
	<text transform="matrix(1 0 0 1 436.9 615.26)" fill="#010101" font-family="'ArialMT'" font-size="21px">FC3</text>
</g>
<g id="Group_47">
	<path id="FC1" fill="#E2E1E1" d="M582.8,640.9c14.9,0,27-12.2,27-27.3s-12.1-27.3-27-27.3s-27,12.2-27,27.3
		S567.9,640.9,582.8,640.9z"/>
	<path id="Vector_234" fill="none" stroke="#010101" stroke-width="2.28" stroke-miterlimit="5.7" d="M582.8,587.2
		c14.6,0,26.4,11.9,26.4,26.4c0,14.6-11.8,26.4-26.4,26.4s-26.4-11.8-26.4-26.4S568.2,587.2,582.8,587.2z"/>
	<text transform="matrix(1 0 0 1 563.86 621.26)" fill="#010101" font-family="'ArialMT'" font-size="21px">FC1</text>
</g>
<g id="Group_48">
	<path id="FCz" fill="#E2E1E1" d="M707.3,647.4c14.9,0,27-12.2,27-27.3s-12.1-27.3-27-27.3s-27,12.2-27,27.3
		S692.4,647.4,707.3,647.4z"/>
	<path id="Vector_235" fill="none" stroke="#010101" stroke-width="2.28" stroke-miterlimit="5.7" d="M707.3,593.7
		c14.6,0,26.4,11.9,26.4,26.4c0,14.6-11.8,26.4-26.4,26.4S681,634.6,681,620.1S692.8,593.7,707.3,593.7z"/>
	<text transform="matrix(1 0 0 1 689.37 625.77)" fill="#010101" font-family="'ArialMT'" font-size="21px">FCz</text>
</g>
<g id="Group_49">
	<path id="FC2" fill="#E2E1E1" d="M833.6,640.4c14.9,0,27-12.2,27-27.3s-12.1-27.3-27-27.3s-27,12.2-27,27.3
		S818.7,640.4,833.6,640.4z"/>
	<path id="Vector_236" fill="none" stroke="#010101" stroke-width="2.28" stroke-miterlimit="5.7" d="M833.6,586.7
		c14.6,0,26.4,11.9,26.4,26.4c0,14.6-11.8,26.4-26.4,26.4s-26.4-11.8-26.4-26.4S819,586.7,833.6,586.7z"/>
	<text transform="matrix(1 0 0 1 812.64 620.8)" fill="#010101" font-family="'ArialMT'" font-size="21px">FC2</text>
</g>
<g id="Group_50">
	<path id="FC4" fill="#E2E1E1" d="M962.3,630.5c14.9,0,27-12.2,27-27.3s-12.1-27.3-27-27.3s-27,12.2-27,27.3
		S947.4,630.5,962.3,630.5z"/>
	<path id="Vector_237" fill="none" stroke="#010101" stroke-width="2.28" stroke-miterlimit="5.7" d="M962.3,576.8
		c14.6,0,26.4,11.9,26.4,26.4c0,14.6-11.8,26.4-26.4,26.4c-14.6,0-26.4-11.8-26.4-26.4S947.7,576.7,962.3,576.8z"/>
	<text transform="matrix(1 0 0 1 941.33 610.83)" fill="#010101" font-family="'ArialMT'" font-size="21px">FC4</text>
</g>
<g id="Group_51">
	<path id="FC6" fill="#E2E1E1" d="M1085.1,618.8c14.9,0,27-12.2,27-27.3s-12.1-27.3-27-27.3s-27,12.2-27,27.3
		S1070.2,618.8,1085.1,618.8z"/>
	<path id="Vector_238" fill="none" stroke="#010101" stroke-width="2.28" stroke-miterlimit="5.7" d="M1085.1,565.1
		c14.6,0,26.4,11.9,26.4,26.4c0,14.6-11.8,26.4-26.4,26.4s-26.4-11.8-26.4-26.4S1070.6,565.1,1085.1,565.1z"/>
	<text transform="matrix(1 0 0 1 1065.17 599.16)" fill="#010101" font-family="'ArialMT'" font-size="21px">FC6</text>
</g>
<g id="Group_52">
	<path id="FT8" fill="#E2E1E1" d="M1211.7,591.2c14.9,0,27-12.2,27-27.3s-12.1-27.3-27-27.3s-27,12.2-27,27.3
		S1196.8,591.2,1211.7,591.2z"/>
	<path id="Vector_239" fill="none" stroke="#010101" stroke-width="2.28" stroke-miterlimit="5.7" d="M1211.7,537.5
		c14.6,0,26.4,11.9,26.4,26.4c0,14.6-11.8,26.4-26.4,26.4s-26.4-11.8-26.4-26.4S1197.1,537.5,1211.7,537.5z"/>
	<text transform="matrix(1 0 0 1 1192.73 570.55)" fill="#010101" font-family="'ArialMT'" font-size="21px">FT8</text>
</g>
<g id="Group_53">
	<path id="FT10" fill="#E2E1E1" d="M1329.6,555.8c14.9,0,27-12.2,27-27.3s-12.1-27.3-27-27.3s-27,12.2-27,27.3
		S1314.7,555.8,1329.6,555.8z"/>
	<path id="Vector_240" fill="none" stroke="#010101" stroke-width="2.28" stroke-miterlimit="5.7" d="M1329.6,502.1
		c14.6,0,26.4,11.9,26.4,26.4c0,14.6-11.8,26.4-26.4,26.4s-26.4-11.8-26.4-26.4S1315,502.1,1329.6,502.1z"/>
	<text transform="matrix(1 0 0 1 1313.64 534.2)" fill="#010101" font-family="'Arial-BoldMT'" font-size="14px">FT10</text>
</g>
<g id="Group_54">
	<path id="FTT9h" fill="#E2E1E1" d="M120.2,669.5c14.9,0,27-12.2,27-27.3s-12.1-27.3-27-27.3s-27,12.2-27,27.3
		S105.3,669.5,120.2,669.5z"/>
	<path id="Vector_241" fill="#FDFDFD" stroke="#010101" stroke-width="2.28" stroke-miterlimit="5.7" d="M120.2,615.8
		c14.6,0,26.4,11.9,26.4,26.4c0,14.6-11.8,26.4-26.4,26.4s-26.4-11.8-26.4-26.4S105.6,615.8,120.2,615.8z"/>
	<text transform="matrix(1 0 0 1 98.23 647.89)" fill="#010101" font-family="'Arial-BoldMT'" font-size="14px">FTT9h</text>
</g>
<g id="Group_55">
	<path id="FTT7h" fill="#E2E1E1" d="M250.8,682.2c14.9,0,27-12.2,27-27.3s-12.1-27.3-27-27.3s-27,12.2-27,27.3
		S235.9,682.2,250.8,682.2z"/>
	<path id="Vector_242" fill="#FDFDFD" stroke="#010101" stroke-width="2.28" stroke-miterlimit="5.7" d="M250.8,628.5
		c14.6,0,26.4,11.9,26.4,26.4c0,14.6-11.8,26.4-26.4,26.4s-26.4-11.8-26.4-26.4S236.2,628.5,250.8,628.5z"/>
	<text transform="matrix(1 0 0 1 228.84 660.62)" fill="#010101" font-family="'Arial-BoldMT'" font-size="14px">FTT7h</text>
</g>
<g id="Group_56">
	<path id="FCC5h" fill="#E2E1E1" d="M382,698.8c14.9,0,27-12.2,27-27.3s-12.1-27.3-27-27.3s-27,12.2-27,27.3S367.1,698.8,382,698.8z
		"/>
	<path id="Vector_243" fill="#FDFDFD" stroke="#010101" stroke-width="2.28" stroke-miterlimit="5.7" d="M382,645.1
		c14.6,0,26.4,11.9,26.4,26.4c0,14.6-11.8,26.4-26.4,26.4s-26.4-11.8-26.4-26.4S367.4,645.1,382,645.1z"/>
	<text transform="matrix(1 0 0 1 360.02 677.15)" fill="#010101" font-family="'Arial-BoldMT'" font-size="14px">FCC5h</text>
</g>
<g id="Group_57">
	<path id="FCC3h" fill="#E2E1E1" d="M512.4,706.5c14.9,0,27-12.2,27-27.3s-12.1-27.3-27-27.3s-27,12.2-27,27.3
		S497.5,706.5,512.4,706.5z"/>
	<path id="Vector_244" fill="#FDFDFD" stroke="#010101" stroke-width="2.28" stroke-miterlimit="5.7" d="M512.4,652.8
		c14.6,0,26.4,11.9,26.4,26.4c0,14.6-11.8,26.4-26.4,26.4S486,693.8,486,679.2S497.9,652.8,512.4,652.8z"/>
	<text transform="matrix(1 0 0 1 490.48 684.83)" fill="#010101" font-family="'Arial-BoldMT'" font-size="14px">FCC3h</text>
</g>
<g id="Group_58">
	<path id="FCC1h" fill="#E2E1E1" d="M644.4,704.1c14.9,0,27-12.2,27-27.3s-12.1-27.3-27-27.3s-27,12.2-27,27.3
		S629.5,704.1,644.4,704.1z"/>
	<path id="Vector_245" fill="#FDFDFD" stroke="#010101" stroke-width="2.28" stroke-miterlimit="5.7" d="M644.4,650.4
		c14.6,0,26.4,11.9,26.4,26.4c0,14.6-11.8,26.4-26.4,26.4S618,691.4,618,676.8S629.9,650.3,644.4,650.4z"/>
	<text transform="matrix(1 0 0 1 622.48 682.43)" fill="#010101" font-family="'Arial-BoldMT'" font-size="14px">FCC1h</text>
</g>
<g id="Group_59">
	<path id="FCC2h" fill="#E2E1E1" d="M775.4,700.2c14.9,0,27-12.2,27-27.3s-12.1-27.3-27-27.3s-27,12.2-27,27.3
		S760.5,700.2,775.4,700.2z"/>
	<path id="Vector_246" fill="#FDFDFD" stroke="#010101" stroke-width="2.28" stroke-miterlimit="5.7" d="M775.4,646.5
		c14.6,0,26.4,11.9,26.4,26.4c0,14.6-11.8,26.4-26.4,26.4S749,687.5,749,672.9S760.9,646.5,775.4,646.5z"/>
	<text transform="matrix(1 0 0 1 753.48 678.59)" fill="#010101" font-family="'Arial-BoldMT'" font-size="14px">FCC2h</text>
</g>
<g id="Group_60">
	<path id="FCC4h" fill="#E2E1E1" d="M903,693.9c14.9,0,27-12.2,27-27.3s-12.1-27.3-27-27.3s-27,12.2-27,27.3S888.1,693.9,903,693.9z
		"/>
	<path id="Vector_247" fill="#FDFDFD" stroke="#010101" stroke-width="2.28" stroke-miterlimit="5.7" d="M903,640.2
		c14.6,0,26.4,11.9,26.4,26.4c0,14.6-11.8,26.4-26.4,26.4s-26.4-11.8-26.4-26.4S888.4,640.2,903,640.2z"/>
	<text transform="matrix(1 0 0 1 881.02 672.26)" fill="#010101" font-family="'Arial-BoldMT'" font-size="14px">FCC4h</text>
</g>
<g id="Group_61">
	<path id="FCC6h" fill="#E2E1E1" d="M1036.7,687.8c14.9,0,27-12.2,27-27.3s-12.1-27.3-27-27.3s-27,12.2-27,27.3
		S1021.8,687.8,1036.7,687.8z"/>
	<path id="Vector_248" fill="#FDFDFD" stroke="#010101" stroke-width="2.28" stroke-miterlimit="5.7" d="M1036.7,634.1
		c14.6,0,26.4,11.9,26.4,26.4c0,14.6-11.8,26.4-26.4,26.4s-26.4-11.8-26.4-26.4S1022.1,634.1,1036.7,634.1z"/>
	<text transform="matrix(1 0 0 1 1014.74 666.14)" fill="#010101" font-family="'Arial-BoldMT'" font-size="14px">FCC6h</text>
</g>
<g id="Group_62">
	<path id="FTT8h" fill="#E2E1E1" d="M1163.4,674.6c14.9,0,27-12.2,27-27.3s-12.1-27.3-27-27.3s-27,12.2-27,27.3
		S1148.5,674.6,1163.4,674.6z"/>
	<path id="Vector_249" fill="#FDFDFD" stroke="#010101" stroke-width="2.28" stroke-miterlimit="5.7" d="M1163.4,620.9
		c14.6,0,26.4,11.9,26.4,26.4c0,14.6-11.8,26.4-26.4,26.4s-26.4-11.8-26.4-26.4S1148.9,620.9,1163.4,620.9z"/>
	<text transform="matrix(1 0 0 1 1141.49 652.94)" fill="#010101" font-family="'Arial-BoldMT'" font-size="14px">FTT8h</text>
</g>
<g id="Group_63">
	<path id="FTT10h" fill="#E2E1E1" d="M1297.4,668.2c14.9,0,27-12.2,27-27.3s-12.1-27.3-27-27.3s-27,12.2-27,27.3
		S1282.5,668.2,1297.4,668.2z"/>
	<path id="Vector_250" fill="#FDFDFD" stroke="#010101" stroke-width="2.28" stroke-miterlimit="5.7" d="M1297.4,614.5
		c14.6,0,26.4,11.9,26.4,26.4c0,14.6-11.8,26.4-26.4,26.4s-26.4-11.8-26.4-26.4S1282.9,614.5,1297.4,614.5z"/>
	<text transform="matrix(1 0 0 1 1273.48 646.59)" fill="#010101" font-family="'Arial-BoldMT'" font-size="14px">FTT10h</text>
</g>
<g id="Group_64">
	<path id="T9" fill="#E2E1E1" d="M46,756.8c14.9,0,27-12.2,27-27.3s-12.1-27.3-27-27.3s-27,12.2-27,27.3S31.1,756.8,46,756.8z"/>
	<path id="Vector_251" fill="none" stroke="#010101" stroke-width="2.28" stroke-miterlimit="5.7" d="M46,703.1
		c14.6,0,26.4,11.9,26.4,26.4c0,14.6-11.8,26.4-26.4,26.4S19.7,744,19.7,729.4S31.5,703,46,703.1z"/>
	<text transform="matrix(1 0 0 1 35.0801 735.14)" fill="#010101" font-family="'ArialMT'" font-size="21px">T9</text>
</g>
<g id="Group_65">
	<path id="C5" fill="#E2E1E1" d="M316.5,756.6c14.9,0,27-12.2,27-27.3s-12.1-27.3-27-27.3s-27,12.2-27,27.3S301.6,756.6,316.5,756.6
		z"/>
	<path id="Vector_252" fill="none" stroke="#010101" stroke-width="2.28" stroke-miterlimit="5.7" d="M316.5,702.9
		c14.6,0,26.4,11.9,26.4,26.4c0,14.6-11.8,26.4-26.4,26.4s-26.4-11.8-26.4-26.4S301.9,702.8,316.5,702.9z"/>
	<text transform="matrix(1 0 0 1 302.53 736.93)" fill="#010101" font-family="'ArialMT'" font-size="21px">C5</text>
</g>
<g id="Group_66">
	<path id="C1" fill="#E2E1E1" d="M577.3,759.9c14.9,0,27-12.2,27-27.3s-12.1-27.3-27-27.3s-27,12.2-27,27.3S562.4,759.9,577.3,759.9
		z"/>
	<path id="Vector_253" fill="none" stroke="#010101" stroke-width="2.28" stroke-miterlimit="5.7" d="M577.3,706.2
		c14.6,0,26.4,11.9,26.4,26.4c0,14.6-11.8,26.4-26.4,26.4S551,747.1,551,732.6S562.8,706.2,577.3,706.2z"/>
	<text transform="matrix(1 0 0 1 564.4 740.26)" fill="#010101" font-family="'ArialMT'" font-size="21px">C1</text>
</g>
<g id="Group_67">
	<path id="C2" fill="#E2E1E1" d="M841.7,758.4c14.9,0,27-12.2,27-27.3s-12.1-27.3-27-27.3s-27,12.2-27,27.3S826.8,758.4,841.7,758.4
		z"/>
	<path id="Vector_254" fill="none" stroke="#010101" stroke-width="2.28" stroke-miterlimit="5.7" d="M841.7,704.7
		c14.6,0,26.4,11.9,26.4,26.4c0,14.6-11.8,26.4-26.4,26.4s-26.4-11.8-26.4-26.4S827.2,704.7,841.7,704.7z"/>
	<text transform="matrix(1 0 0 1 827.76 738.75)" fill="#010101" font-family="'ArialMT'" font-size="21px">C2</text>
</g>
<g id="Group_68">
	<path id="C6" fill="#E2E1E1" d="M1102.4,754.2c14.9,0,27-12.2,27-27.3s-12.1-27.3-27-27.3s-27,12.2-27,27.3
		S1087.5,754.2,1102.4,754.2z"/>
	<path id="Vector_255" fill="none" stroke="#010101" stroke-width="2.28" stroke-miterlimit="5.7" d="M1102.4,700.5
		c14.6,0,26.4,11.9,26.4,26.4c0,14.6-11.8,26.4-26.4,26.4s-26.4-11.8-26.4-26.4S1087.9,700.5,1102.4,700.5z"/>
	<text transform="matrix(1 0 0 1 1091.5 732.59)" fill="#010101" font-family="'ArialMT'" font-size="21px">C6</text>
</g>
<g id="Group_69">
	<path id="T10" fill="#E2E1E1" d="M1360.6,755c14.9,0,27-12.2,27-27.3s-12.1-27.3-27-27.3s-27,12.2-27,27.3S1345.7,755,1360.6,755z"
		/>
	<path id="Vector_256" fill="none" stroke="#010101" stroke-width="2.28" stroke-miterlimit="5.7" d="M1360.6,701.3
		c14.6,0,26.4,11.9,26.4,26.4c0,14.6-11.8,26.4-26.4,26.4s-26.4-11.8-26.4-26.4S1346,701.3,1360.6,701.3z"/>
	<text transform="matrix(1 0 0 1 1342.61 734.37)" fill="#010101" font-family="'ArialMT'" font-size="21px">T10</text>
</g>
<g id="Group_70">
	<path id="T7" fill="#E2E1E1" d="M177.2,759.9c14.9,0,27-12.2,27-27.3s-12.1-27.3-27-27.3s-27,12.2-27,27.3S162.3,759.9,177.2,759.9
		z"/>
	<path id="Vector_257" fill="#020202" stroke="#010101" stroke-width="2.28" stroke-miterlimit="5.7" d="M177.2,706.2
		c14.6,0,26.4,11.9,26.4,26.4c0,14.6-11.8,26.4-26.4,26.4c-14.6,0-26.4-11.8-26.4-26.4S162.6,706.2,177.2,706.2z"/>
	<text transform="matrix(1 0 0 1 166.26 738.26)" fill="#FDFDFD" font-family="'ArialMT'" font-size="21px">T7</text>
</g>
<g id="Group_71">
	<path id="C3" fill="#E2E1E1" d="M441.8,762.2c14.9,0,27-12.2,27-27.3s-12.1-27.3-27-27.3s-27,12.2-27,27.3
		C414.8,749.9,426.9,762.2,441.8,762.2z"/>
	<path id="Vector_258" fill="#020202" stroke="#010101" stroke-width="2.28" stroke-miterlimit="5.7" d="M441.8,708.5
		c14.6,0,26.4,11.9,26.4,26.4c0,14.6-11.8,26.4-26.4,26.4s-26.4-11.8-26.4-26.4C415.5,720.3,427.3,708.5,441.8,708.5z"/>
	<text transform="matrix(1 0 0 1 428.88 740.54)" fill="#FDFDFD" font-family="'ArialMT'" font-size="21px">C3</text>
</g>
<g id="Group_72">
	<path id="Cz" fill="#E2E1E1" d="M705.9,764.3c14.9,0,27-12.2,27-27.3s-12.1-27.3-27-27.3s-27,12.2-27,27.3S691,764.3,705.9,764.3z"
		/>
	<path id="Vector_259" fill="#020202" stroke="#010101" stroke-width="2.28" stroke-miterlimit="5.7" d="M705.9,710.6
		c14.6,0,26.4,11.9,26.4,26.4c0,14.6-11.8,26.4-26.4,26.4s-26.4-11.8-26.4-26.4S691.4,710.6,705.9,710.6z"/>
	<text transform="matrix(1 0 0 1 694.99 742.68)" fill="#FDFDFD" font-family="'ArialMT'" font-size="21px">Cz</text>
</g>
<g id="Group_73">
	<path id="C4" fill="#E2E1E1" d="M969,761.7c14.9,0,27-12.2,27-27.3S983.9,707,969,707s-27,12.2-27,27.3S954.1,761.7,969,761.7z"/>
	<path id="Vector_260" fill="#020202" stroke="#010101" stroke-width="2.28" stroke-miterlimit="5.7" d="M969,708
		c14.6,0,26.4,11.9,26.4,26.4c0,14.6-11.8,26.4-26.4,26.4s-26.4-11.8-26.4-26.4S954.5,708,969,708z"/>
	<text transform="matrix(1 0 0 1 958.09 740.08)" fill="#FDFDFD" font-family="'ArialMT'" font-size="21px">C4</text>
</g>
<g id="Group_74">
	<path id="T8" fill="#E2E1E1" d="M1236.1,754.6c14.9,0,27-12.2,27-27.3s-12.1-27.3-27-27.3s-27,12.2-27,27.3
		S1221.2,754.6,1236.1,754.6z"/>
	<path id="Vector_261" fill="#020202" stroke="#010101" stroke-width="2.28" stroke-miterlimit="5.7" d="M1236.1,700.9
		c14.6,0,26.4,11.9,26.4,26.4c0,14.6-11.8,26.4-26.4,26.4s-26.4-11.8-26.4-26.4S1221.5,700.8,1236.1,700.9z"/>
	<text transform="matrix(1 0 0 1 1225.11 732.93)" fill="#FDFDFD" font-family="'ArialMT'" font-size="21px">T8</text>
</g>
<g id="Group_75">
	<path id="TTP7h" fill="#E2E1E1" d="M255.4,836.8c14.9,0,27-12.2,27-27.3s-12.1-27.3-27-27.3s-27,12.2-27,27.3
		S240.5,836.8,255.4,836.8z"/>
	<path id="Vector_262" fill="#FDFDFD" stroke="#010101" stroke-width="2.28" stroke-miterlimit="5.7" d="M255.4,783.1
		c14.6,0,26.4,11.9,26.4,26.4c0,14.6-11.8,26.4-26.4,26.4S229,824.1,229,809.5S240.9,783.1,255.4,783.1z"/>
	<text transform="matrix(1 0 0 1 233.48 815.16)" fill="#010101" font-family="'Arial-BoldMT'" font-size="14px">TTP7h</text>
</g>
<g id="Group_76">
	<path id="CC5h" fill="#E2E1E1" d="M380.1,829.4c14.9,0,27-12.2,27-27.3s-12.1-27.3-27-27.3s-27,12.2-27,27.3
		S365.2,829.4,380.1,829.4z"/>
	<path id="Vector_263" fill="#FDFDFD" stroke="#010101" stroke-width="2.28" stroke-miterlimit="5.7" d="M380.1,775.7
		c14.6,0,26.4,11.9,26.4,26.4c0,14.6-11.8,26.4-26.4,26.4s-26.4-11.8-26.4-26.4S365.5,775.7,380.1,775.7z"/>
	<text transform="matrix(1 0 0 1 358.16 807.78)" fill="#010101" font-family="'Arial-BoldMT'" font-size="14px">CC5h</text>
</g>
<g id="Group_77">
	<path id="CC3h" fill="#E2E1E1" d="M513.4,824.9c14.9,0,27-12.2,27-27.3s-12.1-27.3-27-27.3s-27,12.2-27,27.3
		S498.5,824.9,513.4,824.9z"/>
	<path id="Vector_264" fill="#FDFDFD" stroke="#010101" stroke-width="2.28" stroke-miterlimit="5.7" d="M513.4,771.2
		c14.6,0,26.4,11.9,26.4,26.4c0,14.6-11.8,26.4-26.4,26.4c-14.6,0-26.4-11.8-26.4-26.4S498.8,771.2,513.4,771.2z"/>
	<text transform="matrix(1 0 0 1 491.43 803.26)" fill="#010101" font-family="'Arial-BoldMT'" font-size="14px">CC3h</text>
</g>
<g id="Group_78">
	<path id="CC1h" fill="#E2E1E1" d="M645.4,823.2c14.9,0,27-12.2,27-27.3s-12.1-27.3-27-27.3s-27,12.2-27,27.3
		C618.5,811,630.5,823.2,645.4,823.2z"/>
	<path id="Vector_265" fill="#FDFDFD" stroke="#010101" stroke-width="2.28" stroke-miterlimit="5.7" d="M645.4,769.5
		c14.6,0,26.4,11.9,26.4,26.4c0,14.6-11.8,26.4-26.4,26.4S619,810.5,619,795.9S630.9,769.5,645.4,769.5z"/>
	<text transform="matrix(1 0 0 1 627.48 801.61)" fill="#010101" font-family="'Arial-BoldMT'" font-size="14px">CC1h</text>
</g>
<g id="Group_79">
	<path id="CC2h" fill="#E2E1E1" d="M771.9,823.9c14.9,0,27-12.2,27-27.3s-12.1-27.3-27-27.3s-27,12.2-27,27.3S757,823.9,771.9,823.9
		z"/>
	<path id="Vector_266" fill="#FDFDFD" stroke="#010101" stroke-width="2.28" stroke-miterlimit="5.7" d="M771.9,770.2
		c14.6,0,26.4,11.9,26.4,26.4c0,14.6-11.8,26.4-26.4,26.4s-26.4-11.8-26.4-26.4S757.4,770.2,771.9,770.2z"/>
	<text transform="matrix(1 0 0 1 753.98 802.26)" fill="#010101" font-family="'Arial-BoldMT'" font-size="14px">CC2h</text>
</g>
<g id="Group_80">
	<path id="CC4h" fill="#E2E1E1" d="M900.5,826.8c14.9,0,27-12.2,27-27.3s-12.1-27.3-27-27.3s-27,12.2-27,27.3
		S885.6,826.8,900.5,826.8z"/>
	<path id="Vector_267" fill="#FDFDFD" stroke="#010101" stroke-width="2.28" stroke-miterlimit="5.7" d="M900.5,773.1
		c14.6,0,26.4,11.9,26.4,26.4c0,14.6-11.8,26.4-26.4,26.4s-26.4-11.8-26.4-26.4S886,773.1,900.5,773.1z"/>
	<text transform="matrix(1 0 0 1 881.56 805.15)" fill="#010101" font-family="'Arial-BoldMT'" font-size="14px">CC4h</text>
</g>
<g id="Group_81">
	<path id="CC6h" fill="#E2E1E1" d="M1036.4,829.4c14.9,0,27-12.2,27-27.3s-12.1-27.3-27-27.3s-27,12.2-27,27.3
		S1021.5,829.4,1036.4,829.4z"/>
	<path id="Vector_268" fill="#FDFDFD" stroke="#010101" stroke-width="2.28" stroke-miterlimit="5.7" d="M1036.4,775.7
		c14.6,0,26.4,11.9,26.4,26.4c0,14.6-11.8,26.4-26.4,26.4s-26.4-11.8-26.4-26.4S1021.8,775.7,1036.4,775.7z"/>
	<text transform="matrix(1 0 0 1 1017.42 807.78)" fill="#010101" font-family="'Arial-BoldMT'" font-size="14px">CC6h</text>
</g>
<g id="Group_82">
	<path id="TTP8h" fill="#E2E1E1" d="M1167.9,838.9c14.9,0,27-12.2,27-27.3s-12.1-27.3-27-27.3s-27,12.2-27,27.3
		C1140.9,826.6,1153,838.9,1167.9,838.9z"/>
	<path id="Vector_269" fill="#FDFDFD" stroke="#010101" stroke-width="2.28" stroke-miterlimit="5.7" d="M1167.9,785.2
		c14.6,0,26.4,11.9,26.4,26.4c0,14.6-11.8,26.4-26.4,26.4s-26.4-11.8-26.4-26.4C1141.6,797,1153.4,785.2,1167.9,785.2z"/>
	<text transform="matrix(1 0 0 1 1145.98 817.23)" fill="#010101" font-family="'Arial-BoldMT'" font-size="14px">TTP8h</text>
</g>
<g id="Group_83">
	<path id="TP7" fill="#E2E1E1" d="M204.2,919.9c14.9,0,27-12.2,27-27.3s-12.1-27.3-27-27.3s-27,12.2-27,27.3
		S189.3,919.9,204.2,919.9z"/>
	<path id="Vector_270" fill="none" stroke="#010101" stroke-width="2.28" stroke-miterlimit="5.7" d="M204.2,866.2
		c14.6,0,26.4,11.9,26.4,26.4c0,14.6-11.8,26.4-26.4,26.4s-26.4-11.8-26.4-26.4S189.6,866.2,204.2,866.2z"/>
	<text transform="matrix(1 0 0 1 185.25 898.26)" fill="#010101" font-family="'ArialMT'" font-size="21px">TP7</text>
</g>
<g id="Group_84">
	<path id="CP5" fill="#E2E1E1" d="M327.3,904.8c14.9,0,27-12.2,27-27.3s-12.1-27.3-27-27.3s-27,12.2-27,27.3
		S312.4,904.8,327.3,904.8z"/>
	<path id="Vector_271" fill="none" stroke="#010101" stroke-width="2.28" stroke-miterlimit="5.7" d="M327.3,851.1
		c14.6,0,26.4,11.9,26.4,26.4c0,14.6-11.8,26.4-26.4,26.4S301,892.1,301,877.5S312.8,851.1,327.3,851.1z"/>
	<text transform="matrix(1 0 0 1 308.37 883.2)" fill="#010101" font-family="'ArialMT'" font-size="21px">CP5</text>
</g>
<g id="Group_85">
	<path id="CP3" fill="#E2E1E1" d="M455.9,892.6c14.9,0,27-12.2,27-27.3s-12.1-27.3-27-27.3s-27,12.2-27,27.3
		S440.9,892.6,455.9,892.6z"/>
	<path id="Vector_272" fill="none" stroke="#010101" stroke-width="2.28" stroke-miterlimit="5.7" d="M455.9,838.9
		c14.6,0,26.4,11.9,26.4,26.4c0,14.6-11.8,26.4-26.4,26.4s-26.4-11.8-26.4-26.4S441.3,838.8,455.9,838.9z"/>
	<text transform="matrix(1 0 0 1 434.9 872.93)" fill="#010101" font-family="'ArialMT'" font-size="21px">CP3</text>
</g>
<g id="Group_86">
	<path id="CP1" fill="#E2E1E1" d="M581.2,886.7c14.9,0,27-12.2,27-27.3s-12.1-27.3-27-27.3s-27,12.2-27,27.3
		S566.3,886.7,581.2,886.7z"/>
	<path id="Vector_273" fill="none" stroke="#010101" stroke-width="2.28" stroke-miterlimit="5.7" d="M581.2,833
		c14.6,0,26.4,11.9,26.4,26.4c0,14.6-11.8,26.4-26.4,26.4s-26.4-11.8-26.4-26.4S566.7,833,581.2,833z"/>
	<text transform="matrix(1 0 0 1 561.29 868.1)" fill="#010101" font-family="'ArialMT'" font-size="21px">CP1</text>
</g>
<g id="Group_87">
	<path id="CPz" fill="#E2E1E1" d="M704.1,884.8c14.9,0,27-12.2,27-27.3s-12.1-27.3-27-27.3s-27,12.2-27,27.3
		S689.2,884.8,704.1,884.8z"/>
	<path id="Vector_274" fill="none" stroke="#010101" stroke-width="2.28" stroke-miterlimit="5.7" d="M704.1,831.1
		c14.6,0,26.4,11.9,26.4,26.4c0,14.6-11.8,26.4-26.4,26.4s-26.4-11.8-26.4-26.4S689.5,831,704.1,831.1z"/>
	<text transform="matrix(1 0 0 1 685.15 865.14)" fill="#010101" font-family="'ArialMT'" font-size="21px">CPz</text>
</g>
<g id="Group_88">
	<path id="CP2" fill="#E2E1E1" d="M831.1,885.6c14.9,0,27-12.2,27-27.3S846,831,831.1,831s-27,12.2-27,27.3S816.2,885.6,831.1,885.6
		z"/>
	<path id="Vector_275" fill="none" stroke="#010101" stroke-width="2.28" stroke-miterlimit="5.7" d="M831.1,831.9
		c14.6,0,26.4,11.9,26.4,26.4c0,14.6-11.8,26.4-26.4,26.4s-26.4-11.8-26.4-26.4S816.5,831.8,831.1,831.9z"/>
	<text transform="matrix(1 0 0 1 811.12 863.93)" fill="#010101" font-family="'ArialMT'" font-size="21px">CP2</text>
</g>
<g id="Group_89">
	<path id="CP4" fill="#E2E1E1" d="M961.4,890.3c14.9,0,27-12.2,27-27.3s-12.1-27.3-27-27.3s-27,12.2-27,27.3
		S946.5,890.3,961.4,890.3z"/>
	<path id="Vector_276" fill="none" stroke="#010101" stroke-width="2.28" stroke-miterlimit="5.7" d="M961.4,836.6
		c14.6,0,26.4,11.9,26.4,26.4c0,14.6-11.8,26.4-26.4,26.4S935,877.6,935,863S946.9,836.6,961.4,836.6z"/>
	<text transform="matrix(1 0 0 1 943.49 868.66)" fill="#010101" font-family="'ArialMT'" font-size="21px">CP4</text>
</g>
<g id="Group_90">
	<path id="CP6" fill="#E2E1E1" d="M1081.2,900.3c14.9,0,27-12.2,27-27.3s-12.1-27.3-27-27.3s-27,12.2-27,27.3
		S1066.3,900.3,1081.2,900.3z"/>
	<path id="Vector_277" fill="none" stroke="#010101" stroke-width="2.28" stroke-miterlimit="5.7" d="M1081.2,846.6
		c14.6,0,26.4,11.9,26.4,26.4c0,14.6-11.8,26.4-26.4,26.4s-26.4-11.8-26.4-26.4C1054.8,858.4,1066.6,846.6,1081.2,846.6z"/>
	<text transform="matrix(1 0 0 1 1062.24 878.67)" fill="#010101" font-family="'ArialMT'" font-size="21px">CP6</text>
</g>
<g id="Group_91">
	<path id="TP8" fill="#E2E1E1" d="M1203.2,923.9c14.9,0,27-12.2,27-27.3s-12.1-27.3-27-27.3s-27,12.2-27,27.3
		S1188.3,923.9,1203.2,923.9z"/>
	<path id="Vector_278" fill="none" stroke="#010101" stroke-width="2.28" stroke-miterlimit="5.7" d="M1203.2,870.2
		c14.6,0,26.4,11.9,26.4,26.4c0,14.6-11.8,26.4-26.4,26.4s-26.4-11.8-26.4-26.4S1188.7,870.2,1203.2,870.2z"/>
	<text transform="matrix(1 0 0 1 1184.29 902.26)" fill="#010101" font-family="'ArialMT'" font-size="21px">TP8</text>
</g>
<g id="Group_92">
	<path id="TPP9h" fill="#E2E1E1" d="M181.4,1030c14.9,0,27-12.2,27-27.3s-12.1-27.3-27-27.3s-27,12.2-27,27.3
		C154.4,1017.7,166.5,1030,181.4,1030z"/>
	<path id="Vector_279" fill="#FDFDFD" stroke="#010101" stroke-width="2.28" stroke-miterlimit="5.7" d="M181.4,976.3
		c14.6,0,26.4,11.9,26.4,26.4c0,14.6-11.8,26.4-26.4,26.4s-26.4-11.8-26.4-26.4S166.9,976.3,181.4,976.3z"/>
	<text transform="matrix(1 0 0 1 159.48 1008.34)" fill="#010101" font-family="'Arial-BoldMT'" font-size="14px">TPP9h</text>
</g>
<g id="Group_93">
	<path id="TPP7h" fill="#E2E1E1" d="M299.4,981.8c14.9,0,27-12.2,27-27.3s-12.1-27.3-27-27.3s-27,12.2-27,27.3
		S284.5,981.8,299.4,981.8z"/>
	<path id="Vector_280" fill="#FDFDFD" stroke="#010101" stroke-width="2.28" stroke-miterlimit="5.7" d="M299.4,928.1
		c14.6,0,26.4,11.9,26.4,26.4c0,14.6-11.8,26.4-26.4,26.4S273,969.1,273,954.5S284.9,928.1,299.4,928.1z"/>
	<text transform="matrix(1 0 0 1 277.48 960.16)" fill="#010101" font-family="'Arial-BoldMT'" font-size="14px">TPP7h</text>
</g>
<g id="Group_94">
	<path id="CCP5H" fill="#E2E1E1" d="M408.4,962.8c14.9,0,27-12.2,27-27.3s-12.1-27.3-27-27.3s-27,12.2-27,27.3
		S393.5,962.8,408.4,962.8z"/>
	<path id="Vector_281" fill="#FDFDFD" stroke="#010101" stroke-width="2.28" stroke-miterlimit="5.7" d="M408.4,909.1
		c14.6,0,26.4,11.9,26.4,26.4c0,14.6-11.8,26.4-26.4,26.4S382,950.1,382,935.5S393.9,909,408.4,909.1z"/>
	<text transform="matrix(1 0 0 1 385.48 941.13)" fill="#010101" font-family="'Arial-BoldMT'" font-size="14px">CCP5H</text>
</g>
<g id="Group_95">
	<path id="CCP3H" fill="#E2E1E1" d="M527.4,957.6c14.9,0,27-12.2,27-27.3s-12.1-27.3-27-27.3s-27,12.2-27,27.3
		S512.5,957.6,527.4,957.6z"/>
	<path id="Vector_282" fill="#FDFDFD" stroke="#010101" stroke-width="2.28" stroke-miterlimit="5.7" d="M527.4,903.9
		c14.6,0,26.4,11.9,26.4,26.4c0,14.6-11.8,26.4-26.4,26.4S501,944.9,501,930.3S512.9,903.9,527.4,903.9z"/>
	<text transform="matrix(1 0 0 1 504.48 935.96)" fill="#010101" font-family="'Arial-BoldMT'" font-size="14px">CCP3H</text>
</g>
<g id="Group_96">
	<path id="CCP1H" fill="#E2E1E1" d="M645.4,950.3c14.9,0,27-12.2,27-27.3s-12.1-27.3-27-27.3s-27,12.2-27,27.3
		S630.5,950.3,645.4,950.3z"/>
	<path id="Vector_283" fill="#FDFDFD" stroke="#010101" stroke-width="2.28" stroke-miterlimit="5.7" d="M645.4,896.6
		c14.6,0,26.4,11.9,26.4,26.4c0,14.6-11.8,26.4-26.4,26.4S619,937.6,619,923S630.9,896.5,645.4,896.6z"/>
	<text transform="matrix(1 0 0 1 622.48 928.63)" fill="#010101" font-family="'Arial-BoldMT'" font-size="14px">CCP1H</text>
</g>
<g id="Group_97">
	<path id="CCP2H" fill="#E2E1E1" d="M764.5,948.1c14.9,0,27-12.2,27-27.3s-12.1-27.3-27-27.3s-27,12.2-27,27.3
		C737.5,935.9,749.5,948.1,764.5,948.1z"/>
	<path id="Vector_284" fill="#FDFDFD" stroke="#010101" stroke-width="2.28" stroke-miterlimit="5.7" d="M764.5,894.4
		c14.6,0,26.4,11.9,26.4,26.4c0,14.6-11.8,26.4-26.4,26.4s-26.4-11.8-26.4-26.4S749.9,894.4,764.5,894.4z"/>
	<text transform="matrix(1 0 0 1 740.49 926.48)" fill="#010101" font-family="'Arial-BoldMT'" font-size="14px">CCP2H</text>
</g>
<g id="Group_98">
	<path id="CCP4H" fill="#E2E1E1" d="M888.3,953.9c14.9,0,27-12.2,27-27.3s-12.1-27.3-27-27.3s-27,12.2-27,27.3
		S873.4,953.9,888.3,953.9z"/>
	<path id="Vector_285" fill="#FDFDFD" stroke="#010101" stroke-width="2.28" stroke-miterlimit="5.7" d="M888.3,900.2
		c14.6,0,26.4,11.9,26.4,26.4c0,14.6-11.8,26.4-26.4,26.4s-26.4-11.8-26.4-26.4S873.7,900.2,888.3,900.2z"/>
	<text transform="matrix(1 0 0 1 864.31 932.26)" fill="#010101" font-family="'Arial-BoldMT'" font-size="14px">CCP4H</text>
</g>
<g id="Group_99">
	<path id="CCP6H" fill="#E2E1E1" d="M1003.1,965.3c14.9,0,27-12.2,27-27.3s-12.1-27.3-27-27.3s-27,12.2-27,27.3
		S988.2,965.3,1003.1,965.3z"/>
	<path id="Vector_286" fill="#FDFDFD" stroke="#010101" stroke-width="2.28" stroke-miterlimit="5.7" d="M1003.1,911.6
		c14.6,0,26.4,11.9,26.4,26.4c0,14.6-11.8,26.4-26.4,26.4s-26.4-11.8-26.4-26.4S988.5,911.5,1003.1,911.6z"/>
	<text transform="matrix(1 0 0 1 980.14 943.63)" fill="#010101" font-family="'Arial-BoldMT'" font-size="14px">CCP6H</text>
</g>
<g id="Group_100">
	<path id="TPP8h" fill="#E2E1E1" d="M1120.5,984c14.9,0,27-12.2,27-27.3s-12.1-27.3-27-27.3s-27,12.2-27,27.3S1105.6,984,1120.5,984
		z"/>
	<path id="Vector_287" fill="#FDFDFD" stroke="#010101" stroke-width="2.28" stroke-miterlimit="5.7" d="M1120.5,930.3
		c14.6,0,26.4,11.9,26.4,26.4c0,14.6-11.8,26.4-26.4,26.4s-26.4-11.8-26.4-26.4S1105.9,930.2,1120.5,930.3z"/>
	<text transform="matrix(1 0 0 1 1098.53 962.33)" fill="#010101" font-family="'Arial-BoldMT'" font-size="14px">TPP8h</text>
</g>
<g id="Group_101">
	<path id="TPP10h" fill="#E2E1E1" d="M1228.4,1030c14.9,0,27-12.2,27-27.3s-12.1-27.3-27-27.3s-27,12.2-27,27.3
		C1201.4,1017.7,1213.5,1030,1228.4,1030z"/>
	<path id="Vector_288" fill="#FDFDFD" stroke="#010101" stroke-width="2.28" stroke-miterlimit="5.7" d="M1228.4,976.3
		c14.6,0,26.4,11.9,26.4,26.4c0,14.6-11.8,26.4-26.4,26.4s-26.4-11.8-26.4-26.4S1213.9,976.3,1228.4,976.3z"/>
	<text transform="matrix(1 0 0 1 1205.48 1008.34)" fill="#010101" font-family="'Arial-BoldMT'" font-size="12px">TPP10h</text>
</g>
<g id="Group_102">
	<path id="P9" fill="#E2E1E1" d="M184,1144.6c14.9,0,27-12.2,27-27.3c0-15.1-12.1-27.3-27-27.3s-27,12.2-27,27.3
		S169.1,1144.6,184,1144.6z"/>
	<path id="Vector_289" fill="none" stroke="#010101" stroke-width="2.28" stroke-miterlimit="5.7" d="M184,1090.9
		c14.6,0,26.4,11.9,26.4,26.4c0,14.6-11.8,26.4-26.4,26.4c-14.6,0-26.4-11.8-26.4-26.4C157.6,1102.7,169.4,1090.9,184,1090.9z"/>
	<text transform="matrix(1 0 0 1 172.01 1125)" fill="#010101" font-family="'ArialMT'" font-size="21px">P9</text>
</g>
<g id="Group_103">
	<path id="P5" fill="#E2E1E1" d="M385.7,1036.5c14.9,0,27-12.2,27-27.3c0-15.1-12.1-27.3-27-27.3s-27,12.2-27,27.3
		C358.7,1024.2,370.8,1036.5,385.7,1036.5z"/>
	<path id="Vector_290" fill="none" stroke="#010101" stroke-width="2.28" stroke-miterlimit="5.7" d="M385.7,982.8
		c14.6,0,26.4,11.9,26.4,26.4c0,14.6-11.8,26.4-26.4,26.4s-26.4-11.8-26.4-26.4S371.1,982.8,385.7,982.8z"/>
	<text transform="matrix(1 0 0 1 374.75 1014.86)" fill="#010101" font-family="'ArialMT'" font-size="21px">P5</text>
</g>
<g id="Group_104">
	<path id="P1" fill="#E2E1E1" d="M600.1,1008.3c14.9,0,27-12.2,27-27.3s-12.1-27.3-27-27.3s-27,12.2-27,27.3
		S585.2,1008.3,600.1,1008.3z"/>
	<path id="Vector_291" fill="none" stroke="#010101" stroke-width="2.28" stroke-miterlimit="5.7" d="M600.1,954.6
		c14.6,0,26.4,11.9,26.4,26.4c0,14.6-11.8,26.4-26.4,26.4s-26.4-11.8-26.4-26.4S585.5,954.6,600.1,954.6z"/>
	<text transform="matrix(1 0 0 1 589.15 986.65)" fill="#010101" font-family="'ArialMT'" font-size="21px">P1</text>
</g>
<g id="Group_105">
	<path id="P2" fill="#E2E1E1" d="M819.6,1007.5c14.9,0,27-12.2,27-27.3s-12.1-27.3-27-27.3s-27,12.2-27,27.3
		S804.7,1007.5,819.6,1007.5z"/>
	<path id="Vector_292" fill="none" stroke="#010101" stroke-width="2.28" stroke-miterlimit="5.7" d="M819.6,953.8
		c14.6,0,26.4,11.9,26.4,26.4c0,14.6-11.8,26.4-26.4,26.4s-26.4-11.8-26.4-26.4C793.2,965.7,805,953.8,819.6,953.8z"/>
	<text transform="matrix(1 0 0 1 806.66 986.92)" fill="#010101" font-family="'ArialMT'" font-size="21px">P2</text>
</g>
<g id="Group_106">
	<path id="P6" fill="#E2E1E1" d="M1029.2,1040.2c14.9,0,27-12.2,27-27.3c0-15.1-12.1-27.3-27-27.3s-27,12.2-27,27.3
		C1002.2,1028,1014.3,1040.2,1029.2,1040.2z"/>
	<path id="Vector_293" fill="none" stroke="#010101" stroke-width="2.28" stroke-miterlimit="5.7" d="M1029.2,986.5
		c14.6,0,26.4,11.9,26.4,26.4c0,14.6-11.8,26.4-26.4,26.4s-26.4-11.8-26.4-26.4C1002.8,998.3,1014.6,986.5,1029.2,986.5z"/>
	<text transform="matrix(1 0 0 1 1018.25 1020.58)" fill="#010101" font-family="'ArialMT'" font-size="21px">P6</text>
</g>
<g id="Group_107">
	<path id="P10" fill="#E2E1E1" d="M1229.6,1145.6c14.9,0,27-12.2,27-27.3s-12.1-27.3-27-27.3s-27,12.2-27,27.3
		S1214.7,1145.6,1229.6,1145.6z"/>
	<path id="Vector_294" fill="none" stroke="#010101" stroke-width="2.28" stroke-miterlimit="5.7" d="M1229.6,1091.9
		c14.6,0,26.4,11.9,26.4,26.4c0,14.6-11.8,26.4-26.4,26.4s-26.4-11.8-26.4-26.4C1203.2,1103.7,1215.1,1091.8,1229.6,1091.9z"/>
	<text transform="matrix(1 0 0 1 1211.66 1125.9301)" fill="#010101" font-family="'ArialMT'" font-size="21px">P10</text>
</g>
<g id="Group_108">
	<path id="P7" fill="#E2E1E1" d="M288.5,1069.9c14.9,0,27-12.2,27-27.3c0-15.1-12.1-27.3-27-27.3s-27,12.2-27,27.3
		S273.5,1069.9,288.5,1069.9z"/>
	<path id="Vector_295" fill="#020202" stroke="#010101" stroke-width="2.28" stroke-miterlimit="5.7" d="M288.5,1016.2
		c14.6,0,26.4,11.9,26.4,26.4c0,14.6-11.8,26.4-26.4,26.4s-26.4-11.8-26.4-26.4S273.9,1016.2,288.5,1016.2z"/>
	<text transform="matrix(1 0 0 1 277.5 1048.26)" fill="#FDFDFD" font-family="'ArialMT'" font-size="21px">P7</text>
</g>
<g id="Group_109">
	<path id="P3" fill="#E2E1E1" d="M489.6,1023.1c14.9,0,27-12.2,27-27.3s-12.1-27.3-27-27.3s-27,12.2-27,27.3
		C462.6,1010.8,474.7,1023.1,489.6,1023.1z"/>
	<path id="Vector_296" fill="#020202" stroke="#010101" stroke-width="2.28" stroke-miterlimit="5.7" d="M489.6,969.4
		c14.6,0,26.4,11.9,26.4,26.4c0,14.6-11.8,26.4-26.4,26.4s-26.4-11.8-26.4-26.4S475,969.4,489.6,969.4z"/>
	<text transform="matrix(1 0 0 1 478.65 1001.46)" fill="#FDFDFD" font-family="'ArialMT'" font-size="21px">P3</text>
</g>
<g id="Group_110">
	<path id="Pz" fill="#E2E1E1" d="M708.6,1011.3c14.9,0,27-12.2,27-27.3s-12.1-27.3-27-27.3s-27,12.2-27,27.3
		S693.7,1011.3,708.6,1011.3z"/>
	<path id="Vector_297" fill="#020202" stroke="#010101" stroke-width="2.28" stroke-miterlimit="5.7" d="M708.6,957.6
		c14.6,0,26.4,11.9,26.4,26.4c0,14.6-11.8,26.4-26.4,26.4s-26.4-11.8-26.4-26.4S694,957.6,708.6,957.6z"/>
	<text transform="matrix(1 0 0 1 697.66 989.66)" fill="#FDFDFD" font-family="'ArialMT'" font-size="21px">Pz</text>
</g>
<g id="Group_111">
	<path id="P4" fill="#E2E1E1" d="M927.5,1023.9c14.9,0,27-12.2,27-27.3s-12.1-27.3-27-27.3s-27,12.2-27,27.3
		S912.6,1023.9,927.5,1023.9z"/>
	<path id="Vector_298" fill="#020202" stroke="#010101" stroke-width="2.28" stroke-miterlimit="5.7" d="M927.5,970.2
		c14.6,0,26.4,11.9,26.4,26.4c0,14.6-11.8,26.4-26.4,26.4s-26.4-11.8-26.4-26.4S913,970.2,927.5,970.2z"/>
	<text transform="matrix(1 0 0 1 916.56 1002.26)" fill="#FDFDFD" font-family="'ArialMT'" font-size="21px">P4</text>
</g>
<g id="Group_112">
	<path id="P8" fill="#E2E1E1" d="M1125.5,1071.3c14.9,0,27-12.2,27-27.3c0-15.1-12.1-27.3-27-27.3s-27,12.2-27,27.3
		S1110.6,1071.3,1125.5,1071.3z"/>
	<path id="Vector_299" fill="#020202" stroke="#010101" stroke-width="2.28" stroke-miterlimit="5.7" d="M1125.5,1017.6
		c14.6,0,26.4,11.9,26.4,26.4c0,14.6-11.8,26.4-26.4,26.4s-26.4-11.8-26.4-26.4C1099.2,1029.4,1111,1017.6,1125.5,1017.6z"/>
	<text transform="matrix(1 0 0 1 1114.5699 1049.67)" fill="#FDFDFD" font-family="'ArialMT'" font-size="21px">P8</text>
</g>
<g id="Group_113">
	<path id="PPO9h" fill="#E2E1E1" d="M296.7,1170.9c14.9,0,27-12.2,27-27.3c0-15.1-12.1-27.3-27-27.3s-27,12.2-27,27.3
		C269.7,1158.7,281.8,1170.9,296.7,1170.9z"/>
	<path id="Vector_300" fill="#FDFDFD" stroke="#010101" stroke-width="2.28" stroke-miterlimit="5.7" d="M296.7,1117.2
		c14.6,0,26.4,11.9,26.4,26.4c0,14.6-11.8,26.4-26.4,26.4s-26.4-11.8-26.4-26.4C270.4,1129,282.2,1117.2,296.7,1117.2z"/>
	<text transform="matrix(1 0 0 1 274.77 1149.26)" fill="#010101" font-family="'Arial-BoldMT'" font-size="14px">PPO9h</text>
</g>
<g id="Group_114">
	<path id="PPO7h" fill="#E2E1E1" d="M385,1110.9c14.9,0,27-12.2,27-27.3c0-15.1-12.1-27.3-27-27.3s-27,12.2-27,27.3
		C358,1098.7,370.1,1110.9,385,1110.9z"/>
	<path id="Vector_301" fill="#FDFDFD" stroke="#010101" stroke-width="2.28" stroke-miterlimit="5.7" d="M385,1057.2
		c14.6,0,26.4,11.9,26.4,26.4c0,14.6-11.8,26.4-26.4,26.4s-26.4-11.8-26.4-26.4S370.4,1057.2,385,1057.2z"/>
	<text transform="matrix(1 0 0 1 363.04 1089.26)" fill="#010101" font-family="'Arial-BoldMT'" font-size="14px">PPO7h</text>
</g>
<g id="Group_115">
	<path id="PPO5h" fill="#E2E1E1" d="M470.3,1090.9c14.9,0,27-12.2,27-27.3c0-15.1-12.1-27.3-27-27.3s-27,12.2-27,27.3
		C443.3,1078.7,455.4,1090.9,470.3,1090.9z"/>
	<path id="Vector_302" fill="#FDFDFD" stroke="#010101" stroke-width="2.28" stroke-miterlimit="5.7" d="M470.3,1037.2
		c14.6,0,26.4,11.9,26.4,26.4c0,14.6-11.8,26.4-26.4,26.4s-26.4-11.8-26.4-26.4S455.7,1037.2,470.3,1037.2z"/>
	<text transform="matrix(1 0 0 1 448.35 1069.26)" fill="#010101" font-family="'Arial-BoldMT'" font-size="14px">PPO5h</text>
</g>
<g id="Group_116">
	<path id="PPO3h" fill="#E2E1E1" d="M564.4,1077.9c14.9,0,27-12.2,27-27.3c0-15.1-12.1-27.3-27-27.3s-27,12.2-27,27.3
		S549.5,1077.9,564.4,1077.9z"/>
	<path id="Vector_303" fill="#FDFDFD" stroke="#010101" stroke-width="2.28" stroke-miterlimit="5.7" d="M564.4,1024.2
		c14.6,0,26.4,11.9,26.4,26.4c0,14.6-11.8,26.4-26.4,26.4s-26.4-11.8-26.4-26.4S549.8,1024.2,564.4,1024.2z"/>
	<text transform="matrix(1 0 0 1 542.41 1056.27)" fill="#010101" font-family="'Arial-BoldMT'" font-size="14px">PPO3h</text>
</g>
<g id="Group_117">
	<path id="PPO1h" fill="#E2E1E1" d="M658.2,1071.9c14.9,0,27-12.2,27-27.3c0-15.1-12.1-27.3-27-27.3s-27,12.2-27,27.3
		S643.3,1071.9,658.2,1071.9z"/>
	<path id="Vector_304" fill="#FDFDFD" stroke="#010101" stroke-width="2.28" stroke-miterlimit="5.7" d="M658.2,1018.2
		c14.6,0,26.4,11.9,26.4,26.4c0,14.6-11.8,26.4-26.4,26.4s-26.4-11.8-26.4-26.4C631.9,1030,643.7,1018.2,658.2,1018.2z"/>
	<text transform="matrix(1 0 0 1 636.28 1050.26)" fill="#010101" font-family="'Arial-BoldMT'" font-size="14px">PPO1h</text>
</g>
<g id="Group_118">
	<path id="PPO2h" fill="#E2E1E1" d="M756.4,1073.2c14.9,0,27-12.2,27-27.3s-12.1-27.3-27-27.3s-27,12.2-27,27.3
		S741.5,1073.2,756.4,1073.2z"/>
	<path id="Vector_305" fill="#FDFDFD" stroke="#010101" stroke-width="2.28" stroke-miterlimit="5.7" d="M756.4,1019.5
		c14.6,0,26.4,11.9,26.4,26.4c0,14.6-11.8,26.4-26.4,26.4s-26.4-11.8-26.4-26.4C730.1,1031.3,741.9,1019.5,756.4,1019.5z"/>
	<text transform="matrix(1 0 0 1 734.48 1051.55)" fill="#010101" font-family="'Arial-BoldMT'" font-size="14px">PPO2h</text>
</g>
<g id="Group_119">
	<path id="PPO4h" fill="#E2E1E1" d="M850,1077.9c14.9,0,27-12.2,27-27.3c0-15.1-12.1-27.3-27-27.3s-27,12.2-27,27.3
		S835.1,1077.9,850,1077.9z"/>
	<path id="Vector_306" fill="#FDFDFD" stroke="#010101" stroke-width="2.28" stroke-miterlimit="5.7" d="M850,1024.2
		c14.6,0,26.4,11.9,26.4,26.4c0,14.6-11.8,26.4-26.4,26.4c-14.6,0-26.4-11.8-26.4-26.4S835.4,1024.2,850,1024.2z"/>
	<text transform="matrix(1 0 0 1 828.01 1056.27)" fill="#010101" font-family="'Arial-BoldMT'" font-size="14px">PPO4h</text>
</g>
<g id="Group_120">
	<path id="PPO6h" fill="#E2E1E1" d="M942.4,1091.3c14.9,0,27-12.2,27-27.3c0-15.1-12.1-27.3-27-27.3s-27,12.2-27,27.3
		C915.5,1079.1,927.5,1091.3,942.4,1091.3z"/>
	<path id="Vector_307" fill="#FDFDFD" stroke="#010101" stroke-width="2.28" stroke-miterlimit="5.7" d="M942.4,1037.6
		c14.6,0,26.4,11.9,26.4,26.4c0,14.6-11.8,26.4-26.4,26.4S916,1078.6,916,1064C916.1,1049.4,927.9,1037.6,942.4,1037.6z"/>
	<text transform="matrix(1 0 0 1 920.48 1069.67)" fill="#010101" font-family="'Arial-BoldMT'" font-size="14px">PPO6h</text>
</g>
<g id="Group_121">
	<path id="PPO8h" fill="#E2E1E1" d="M1032.3,1113.4c14.9,0,27-12.2,27-27.3c0-15.1-12.1-27.3-27-27.3s-27,12.2-27,27.3
		C1005.3,1101.2,1017.4,1113.4,1032.3,1113.4z"/>
	<path id="Vector_308" fill="#FDFDFD" stroke="#010101" stroke-width="2.28" stroke-miterlimit="5.7" d="M1032.3,1059.7
		c14.6,0,26.4,11.9,26.4,26.4c0,14.6-11.8,26.4-26.4,26.4s-26.4-11.8-26.4-26.4S1017.7,1059.7,1032.3,1059.7z"/>
	<text transform="matrix(1 0 0 1 1010.31 1091.76)" fill="#010101" font-family="'Arial-BoldMT'" font-size="14px">PPO8h</text>
</g>
<g id="Group_122">
	<path id="PPO10h" fill="#E2E1E1" d="M1115.4,1169.2c14.9,0,27-12.2,27-27.3c0-15.1-12.1-27.3-27-27.3s-27,12.2-27,27.3
		C1088.4,1156.9,1100.5,1169.2,1115.4,1169.2z"/>
	<path id="Vector_309" fill="#FDFDFD" stroke="#010101" stroke-width="2.28" stroke-miterlimit="5.7" d="M1115.4,1115.5
		c14.6,0,26.4,11.9,26.4,26.4c0,14.6-11.8,26.4-26.4,26.4s-26.4-11.8-26.4-26.4S1100.8,1115.5,1115.4,1115.5z"/>
	<text transform="matrix(1 0 0 1 1092.4301 1147.54)" fill="#010101" font-family="'Arial-BoldMT'" font-size="12px">PPO10h</text>
</g>
<g id="Group_123">
	<path id="PO7" fill="#E2E1E1" d="M406.5,1182.2c14.9,0,27-12.2,27-27.3s-12.1-27.3-27-27.3s-27,12.2-27,27.3
		S391.6,1182.2,406.5,1182.2z"/>
	<path id="Vector_310" fill="none" stroke="#010101" stroke-width="2.28" stroke-miterlimit="5.7" d="M406.5,1128.5
		c14.6,0,26.4,11.9,26.4,26.4c0,14.6-11.8,26.4-26.4,26.4s-26.4-11.8-26.4-26.4S391.9,1128.5,406.5,1128.5z"/>
	<text transform="matrix(1 0 0 1 385.54 1162.58)" fill="#010101" font-family="'ArialMT'" font-size="21px">PO7</text>
</g>
<g id="Group_124">
	<path id="POz" fill="#E2E1E1" d="M708,1133.8c14.9,0,27-12.2,27-27.3c0-15.1-12.1-27.3-27-27.3s-27,12.2-27,27.3
		C681,1121.5,693.1,1133.8,708,1133.8z"/>
	<path id="Vector_311" fill="none" stroke="#010101" stroke-width="2.28" stroke-miterlimit="5.7" d="M708,1080.1
		c14.6,0,26.4,11.9,26.4,26.4c0,14.6-11.8,26.4-26.4,26.4s-26.4-11.8-26.4-26.4S693.4,1080,708,1080.1z"/>
	<text transform="matrix(1 0 0 1 689.05 1114.12)" fill="#010101" font-family="'ArialMT'" font-size="21px">POz</text>
</g>
<g id="Group_125">
	<path id="PO8" fill="#E2E1E1" d="M1011.4,1182.2c14.9,0,27-12.2,27-27.3s-12.1-27.3-27-27.3s-27,12.2-27,27.3
		S996.5,1182.2,1011.4,1182.2z"/>
	<path id="Vector_312" fill="none" stroke="#010101" stroke-width="2.28" stroke-miterlimit="5.7" d="M1011.4,1128.5
		c14.6,0,26.4,11.9,26.4,26.4c0,14.6-11.8,26.4-26.4,26.4s-26.4-11.8-26.4-26.4S996.9,1128.5,1011.4,1128.5z"/>
	<text transform="matrix(1 0 0 1 990.47 1160.58)" fill="#010101" font-family="'ArialMT'" font-size="21px">PO8</text>
</g>
<g id="Group_126">
	<path id="PO5h" fill="#E2E1E1" d="M512.4,1151.6c14.9,0,27-12.2,27-27.3s-12.1-27.3-27-27.3s-27,12.2-27,27.3
		S497.5,1151.6,512.4,1151.6z"/>
	<path id="Vector_313" fill="#FDFDFD" stroke="#010101" stroke-width="2.28" stroke-miterlimit="5.7" d="M512.4,1097.9
		c14.6,0,26.4,11.9,26.4,26.4c0,14.6-11.8,26.4-26.4,26.4s-26.4-11.8-26.4-26.4C486.1,1109.7,497.9,1097.9,512.4,1097.9z"/>
	<text transform="matrix(1 0 0 1 494.48 1129.97)" fill="#010101" font-family="'Arial-BoldMT'" font-size="14px">PO5h</text>
</g>
<g id="Group_127">
	<path id="POO3" fill="#E2E1E1" d="M603.7,1200.9c14.9,0,27-12.2,27-27.3c0-15.1-12.1-27.3-27-27.3s-27,12.2-27,27.3
		C576.7,1188.7,588.8,1200.9,603.7,1200.9z"/>
	<path id="Vector_314" fill="#FDFDFD" stroke="#010101" stroke-width="2.28" stroke-miterlimit="5.7" d="M603.7,1147.2
		c14.6,0,26.4,11.9,26.4,26.4c0,14.6-11.8,26.4-26.4,26.4c-14.6,0-26.4-11.8-26.4-26.4S589.2,1147.2,603.7,1147.2z"/>
	<text transform="matrix(1 0 0 1 583.76 1179.27)" fill="#010101" font-family="'Arial-BoldMT'" font-size="14px">POO3</text>
</g>
<g id="Group_128">
	<path id="PO3h" fill="#E2E1E1" d="M608.4,1136.1c14.9,0,27-12.2,27-27.3s-12.1-27.3-27-27.3s-27,12.2-27,27.3
		S593.5,1136.1,608.4,1136.1z"/>
	<path id="Vector_315" fill="#FDFDFD" stroke="#010101" stroke-width="2.28" stroke-miterlimit="5.7" d="M608.4,1082.4
		c14.6,0,26.4,11.9,26.4,26.4c0,14.6-11.8,26.4-26.4,26.4s-26.4-11.8-26.4-26.4C582.1,1094.2,593.9,1082.4,608.4,1082.4z"/>
	<text transform="matrix(1 0 0 1 589.48 1114.48)" fill="#010101" font-family="'Arial-BoldMT'" font-size="14px">PO3h</text>
</g>
<g id="Group_129">
	<path id="POO4" fill="#E2E1E1" d="M809.2,1208.6c14.9,0,27-12.2,27-27.3s-12.1-27.3-27-27.3s-27,12.2-27,27.3
		S794.3,1208.6,809.2,1208.6z"/>
	<path id="Vector_316" fill="#FDFDFD" stroke="#010101" stroke-width="2.28" stroke-miterlimit="5.7" d="M809.2,1154.9
		c14.6,0,26.4,11.9,26.4,26.4c0,14.6-11.8,26.4-26.4,26.4s-26.4-11.8-26.4-26.4S794.6,1154.9,809.2,1154.9z"/>
	<text transform="matrix(1 0 0 1 789.25 1186.95)" fill="#010101" font-family="'Arial-BoldMT'" font-size="14px">POO4</text>
</g>
<g id="Group_130">
	<path id="PO4h" fill="#E2E1E1" d="M825.2,1142c14.9,0,27-12.2,27-27.3c0-15.1-12.1-27.3-27-27.3s-27,12.2-27,27.3
		S810.3,1142,825.2,1142z"/>
	<path id="Vector_317" fill="#FDFDFD" stroke="#010101" stroke-width="2.28" stroke-miterlimit="5.7" d="M825.2,1088.3
		c14.6,0,26.4,11.9,26.4,26.4c0,14.6-11.8,26.4-26.4,26.4s-26.4-11.8-26.4-26.4C798.8,1100.1,810.6,1088.3,825.2,1088.3z"/>
	<text transform="matrix(1 0 0 1 805.22 1120.38)" fill="#010101" font-family="'Arial-BoldMT'" font-size="14px">PO4h</text>
</g>
<g id="Group_131">
	<path id="PO6h" fill="#E2E1E1" d="M902.1,1154.9c14.9,0,27-12.2,27-27.3c0-15.1-12.1-27.3-27-27.3s-27,12.2-27,27.3
		C875.1,1142.6,887.2,1154.9,902.1,1154.9z"/>
	<path id="Vector_318" fill="#FDFDFD" stroke="#010101" stroke-width="2.28" stroke-miterlimit="5.7" d="M902.1,1101.2
		c14.6,0,26.4,11.9,26.4,26.4c0,14.6-11.8,26.4-26.4,26.4s-26.4-11.8-26.4-26.4C875.7,1113,887.5,1101.2,902.1,1101.2z"/>
	<text transform="matrix(1 0 0 1 883.11 1133.25)" fill="#010101" font-family="'Arial-BoldMT'" font-size="14px">PO6h</text>
</g>
<g id="Group_132">
	<path id="POO9h" fill="#E2E1E1" d="M444.4,1275.1c14.9,0,27-12.2,27-27.3s-12.1-27.3-27-27.3s-27,12.2-27,27.3
		S429.5,1275.1,444.4,1275.1z"/>
	<path id="Vector_319" fill="#FDFDFD" stroke="#010101" stroke-width="2.28" stroke-miterlimit="5.7" d="M444.4,1221.4
		c14.6,0,26.4,11.9,26.4,26.4c0,14.6-11.8,26.4-26.4,26.4s-26.4-11.8-26.4-26.4C418.1,1233.2,429.9,1221.4,444.4,1221.4z"/>
	<text transform="matrix(1 0 0 1 420.48 1253.46)" fill="#010101" font-family="'Arial-BoldMT'" font-size="14px">POO9h</text>
</g>
<g id="Group_133">
	<path id="OI1h" fill="#E2E1E1" d="M625.4,1322.9c14.9,0,27-12.2,27-27.3c0-15.1-12.1-27.3-27-27.3s-27,12.2-27,27.3
		C598.5,1310.7,610.5,1322.9,625.4,1322.9z"/>
	<path id="Vector_320" fill="#FDFDFD" stroke="#010101" stroke-width="2.28" stroke-miterlimit="5.7" d="M625.4,1269.2
		c14.6,0,26.4,11.9,26.4,26.4c0,14.6-11.8,26.4-26.4,26.4s-26.4-11.8-26.4-26.4C599.1,1281,610.9,1269.2,625.4,1269.2z"/>
	<text transform="matrix(1 0 0 1 607.48 1301.26)" fill="#010101" font-family="'Arial-BoldMT'" font-size="14px">OI1h</text>
</g>
<g id="Group_134">
	<path id="OI2h" fill="#E2E1E1" d="M793.8,1325.9c14.9,0,27-12.2,27-27.3c0-15.1-12.1-27.3-27-27.3s-27,12.2-27,27.3
		C766.8,1313.7,778.9,1325.9,793.8,1325.9z"/>
	<path id="Vector_321" fill="#FDFDFD" stroke="#010101" stroke-width="2.28" stroke-miterlimit="5.7" d="M793.8,1272.2
		c14.6,0,26.4,11.9,26.4,26.4c0,14.6-11.8,26.4-26.4,26.4s-26.4-11.8-26.4-26.4C767.4,1284,779.2,1272.2,793.8,1272.2z"/>
	<text transform="matrix(1 0 0 1 776.85 1304.26)" fill="#010101" font-family="'Arial-BoldMT'" font-size="14px">OI2h</text>
</g>
<g id="Group_135">
	<path id="POO10h" fill="#E2E1E1" d="M969.4,1280c14.9,0,27-12.2,27-27.3s-12.1-27.3-27-27.3s-27,12.2-27,27.3
		S954.5,1280,969.4,1280z"/>
	<path id="Vector_322" fill="#FDFDFD" stroke="#010101" stroke-width="2.28" stroke-miterlimit="5.7" d="M969.4,1226.3
		c14.6,0,26.4,11.9,26.4,26.4c0,14.6-11.8,26.4-26.4,26.4s-26.4-11.8-26.4-26.4C943.1,1238.1,954.9,1226.3,969.4,1226.3z"/>
	<text transform="matrix(1 0 0 1 945.48 1258.34)" fill="#010101" font-family="'Arial-BoldMT'" font-size="12px">POO10h</text>
</g>
<g id="Group_136">
	<path id="PO9" fill="#E2E1E1" d="M341.9,1281.6c14.9,0,27-12.2,27-27.3c0-15.1-12.1-27.3-27-27.3s-27,12.2-27,27.3
		S327,1281.6,341.9,1281.6z"/>
	<path id="Vector_323" fill="none" stroke="#010101" stroke-width="2.28" stroke-miterlimit="5.7" d="M341.9,1227.9
		c14.6,0,26.4,11.9,26.4,26.4c0,14.6-11.8,26.4-26.4,26.4s-26.4-11.8-26.4-26.4C315.5,1239.7,327.3,1227.9,341.9,1227.9z"/>
	<text transform="matrix(1 0 0 1 324.92 1260)" fill="#010101" font-family="'ArialMT'" font-size="18px">PO9</text>
</g>
<g id="Group_137">
	<path id="I1" fill="#E2E1E1" d="M517.9,1360.5c14.9,0,27-12.2,27-27.3s-12.1-27.3-27-27.3c-14.9,0-27,12.2-27,27.3
		S503,1360.5,517.9,1360.5z"/>
	<path id="Vector_324" fill="none" stroke="#010101" stroke-width="2.28" stroke-miterlimit="5.7" d="M517.9,1306.8
		c14.6,0,26.4,11.9,26.4,26.4c0,14.6-11.8,26.4-26.4,26.4s-26.4-11.8-26.4-26.4C491.5,1318.6,503.4,1306.7,517.9,1306.8z"/>
	<text transform="matrix(1 0 0 1 506.97 1338.83)" fill="#010101" font-family="'ArialMT'" font-size="21px">I1</text>
</g>
<g id="Group_138">
	<path id="Iz" fill="#E2E1E1" d="M706.6,1387.8c14.9,0,27-12.2,27-27.3c0-15.1-12.1-27.3-27-27.3s-27,12.2-27,27.3
		C679.6,1375.6,691.7,1387.8,706.6,1387.8z"/>
	<path id="Vector_325" fill="none" stroke="#010101" stroke-width="2.28" stroke-miterlimit="5.7" d="M706.6,1334.1
		c14.6,0,26.4,11.9,26.4,26.4c0,14.6-11.8,26.4-26.4,26.4s-26.4-11.8-26.4-26.4C680.2,1345.9,692,1334.1,706.6,1334.1z"/>
	<text transform="matrix(1 0 0 1 699.61 1367.16)" fill="#010101" font-family="'ArialMT'" font-size="21px">Iz</text>
</g>
<g id="Group_139">
	<path id="I2" fill="#E2E1E1" d="M894.6,1359.8c14.9,0,27-12.2,27-27.3s-12.1-27.3-27-27.3s-27,12.2-27,27.3
		S879.7,1359.8,894.6,1359.8z"/>
	<path id="Vector_326" fill="none" stroke="#010101" stroke-width="2.28" stroke-miterlimit="5.7" d="M894.6,1306.1
		c14.6,0,26.4,11.9,26.4,26.4c0,14.6-11.8,26.4-26.4,26.4s-26.4-11.8-26.4-26.4S880.1,1306.1,894.6,1306.1z"/>
	<text transform="matrix(1 0 0 1 883.68 1338.2)" fill="#010101" font-family="'ArialMT'" font-size="21px">I2</text>
</g>
<g id="Group_140">
	<path id="PO10" fill="#E2E1E1" d="M1085.1,1276.9c14.9,0,27-12.2,27-27.3s-12.1-27.3-27-27.3s-27,12.2-27,27.3
		S1070.2,1276.9,1085.1,1276.9z"/>
	<path id="Vector_327" fill="none" stroke="#010101" stroke-width="2.28" stroke-miterlimit="5.7" d="M1085.1,1223.2
		c14.6,0,26.4,11.9,26.4,26.4c0,14.6-11.8,26.4-26.4,26.4s-26.4-11.8-26.4-26.4C1058.8,1235.1,1070.6,1223.2,1085.1,1223.2z"/>
	<text transform="matrix(1 0 0 1 1062.17 1257.3199)" fill="#010101" font-family="'ArialMT'" font-size="18px">PO10</text>
</g>
<g id="Group_141">
	<path id="_x30_1" fill="#E2E1E1" d="M553.4,1243c14.9,0,27-12.2,27-27.3c0-15.1-12.1-27.3-27-27.3s-27,12.2-27,27.3
		S538.5,1243,553.4,1243z"/>
	<path id="Vector_328" fill="#020202" stroke="#010101" stroke-width="2.28" stroke-miterlimit="5.7" d="M553.4,1189.3
		c14.6,0,26.4,11.9,26.4,26.4c0,14.6-11.8,26.4-26.4,26.4s-26.4-11.8-26.4-26.4C527,1201.1,538.8,1189.3,553.4,1189.3z"/>
	<text transform="matrix(1 0 0 1 542.43 1221.4)" fill="#FDFDFD" font-family="'ArialMT'" font-size="21px">01</text>
</g>
<g id="Group_142">
	<path id="Oz" fill="#E2E1E1" d="M707,1255.7c14.9,0,27-12.2,27-27.3c0-15.1-12.1-27.3-27-27.3s-27,12.2-27,27.3
		C680,1243.4,692.1,1255.7,707,1255.7z"/>
	<path id="Vector_329" fill="#020202" stroke="#010101" stroke-width="2.28" stroke-miterlimit="5.7" d="M707,1202
		c14.6,0,26.4,11.9,26.4,26.4c0,14.6-11.8,26.4-26.4,26.4s-26.4-11.8-26.4-26.4S692.4,1201.9,707,1202z"/>
	<text transform="matrix(1 0 0 1 696.04 1234.03)" fill="#FDFDFD" font-family="'ArialMT'" font-size="21px">Oz</text>
</g>
<g id="Group_143">
	<path id="_x30_1_00000046330298165901562590000005115078134889385398_" fill="#E2E1E1" d="M553.4,1243c14.9,0,27-12.2,27-27.3
		c0-15.1-12.1-27.3-27-27.3s-27,12.2-27,27.3S538.5,1243,553.4,1243z"/>
	<path id="Vector_330" fill="#020202" stroke="#010101" stroke-width="2.28" stroke-miterlimit="5.7" d="M553.4,1189.3
		c14.6,0,26.4,11.9,26.4,26.4c0,14.6-11.8,26.4-26.4,26.4s-26.4-11.8-26.4-26.4C527,1201.1,538.8,1189.3,553.4,1189.3z"/>
	<text transform="matrix(1 0 0 1 542.43 1221.4)" fill="#FDFDFD" font-family="'ArialMT'" font-size="21px">01</text>
</g>
<g id="Group_145">
	<path id="O2" fill="#E2E1E1" d="M868,1239c14.9,0,27-12.2,27-27.3c0-15.1-12.1-27.3-27-27.3s-27,12.2-27,27.3S853,1239,868,1239z"
		/>
	<path id="Vector_331" fill="#020202" stroke="#010101" stroke-width="2.28" stroke-miterlimit="5.7" d="M868,1185.3
		c14.6,0,26.4,11.9,26.4,26.4c0,14.6-11.8,26.4-26.4,26.4s-26.4-11.8-26.4-26.4C841.6,1197.1,853.4,1185.3,868,1185.3z"/>
	<text transform="matrix(1 0 0 1 857 1217.37)" fill="#FDFDFD" font-family="'ArialMT'" font-size="21px">O2</text>
</g>
</svg>
